<svg width="100%" height="100%" id="svg" viewBox="0 0 1440 690" xmlns="http://www.w3.org/2000/svg"
     class="transition duration-300 ease-in-out delay-150">
    <path d="M 0,700 C 0,700 0,140 0,140 C 98.34358974358975,133.87435897435898 196.6871794871795,127.74871794871797 268,142 C 339.3128205128205,156.25128205128203 383.5948717948718,190.87948717948717 452,182 C 520.4051282051282,173.12051282051283 612.9333333333333,120.73333333333333 702,113 C 791.0666666666667,105.26666666666667 876.6717948717949,142.1871794871795 964,143 C 1051.3282051282051,143.8128205128205 1140.3794871794871,108.51794871794871 1220,102 C 1299.6205128205129,95.48205128205129 1369.8102564102564,117.74102564102564 1440,140 C 1440,140 1440,700 1440,700 Z"
          stroke="none" stroke-width="0" fill="#0693e3" fill-opacity="0.265"
          class="transition-all duration-300 ease-in-out delay-150 path-0"></path>
    <path d="M 0,700 C 0,700 0,280 0,280 C 81.6076923076923,259.73846153846154 163.2153846153846,239.47692307692307 246,254 C 328.7846153846154,268.5230769230769 412.7461538461538,317.8307692307692 499,316 C 585.2538461538462,314.1692307692308 673.8,261.20000000000005 752,240 C 830.2,218.79999999999998 898.0538461538463,229.36923076923074 973,255 C 1047.9461538461537,280.63076923076926 1129.9846153846154,321.32307692307694 1209,328 C 1288.0153846153846,334.67692307692306 1364.0076923076922,307.3384615384615 1440,280 C 1440,280 1440,700 1440,700 Z"
          stroke="none" stroke-width="0" fill="#0693e3" fill-opacity="0.4"
          class="transition-all duration-300 ease-in-out delay-150 path-1"></path>
    <path d="M 0,700 C 0,700 0,420 0,420 C 88.85128205128203,449.06666666666666 177.70256410256405,478.1333333333333 265,466 C 352.29743589743595,453.8666666666667 438.0410256410257,400.5333333333333 502,376 C 565.9589743589743,351.4666666666667 608.1333333333333,355.7333333333333 691,382 C 773.8666666666667,408.2666666666667 897.425641025641,456.5333333333334 985,462 C 1072.574358974359,467.4666666666666 1124.1641025641027,430.1333333333333 1194,416 C 1263.8358974358973,401.8666666666667 1351.9179487179485,410.93333333333334 1440,420 C 1440,420 1440,700 1440,700 Z"
          stroke="none" stroke-width="0" fill="#0693e3" fill-opacity="0.53"
          class="transition-all duration-300 ease-in-out delay-150 path-2"></path>
    <path d="M 0,700 C 0,700 0,560 0,560 C 59.520512820512806,544.3820512820513 119.04102564102561,528.7641025641026 205,517 C 290.9589743589744,505.23589743589736 403.3564102564103,497.32564102564095 494,511 C 584.6435897435897,524.674358974359 653.5333333333334,559.9333333333334 722,574 C 790.4666666666666,588.0666666666666 858.5102564102563,580.9410256410256 948,564 C 1037.4897435897437,547.0589743589744 1148.425641025641,520.3025641025641 1234,518 C 1319.574358974359,515.6974358974359 1379.7871794871794,537.8487179487179 1440,560 C 1440,560 1440,700 1440,700 Z"
          stroke="none" stroke-width="0" fill="#0693e3" fill-opacity="1"
          class="transition-all duration-300 ease-in-out delay-150 path-3"></path>
</svg>