<?xml version="1.0" encoding="UTF-8" standalone="no"?>
<svg
   xmlns:dc="http://purl.org/dc/elements/1.1/"
   xmlns:cc="http://creativecommons.org/ns#"
   xmlns:rdf="http://www.w3.org/1999/02/22-rdf-syntax-ns#"
   xmlns:svg="http://www.w3.org/2000/svg"
   xmlns="http://www.w3.org/2000/svg"
   xmlns:sodipodi="http://sodipodi.sourceforge.net/DTD/sodipodi-0.dtd"
   xmlns:inkscape="http://www.inkscape.org/namespaces/inkscape"
   width="371.26331mm"
   height="262.46667mm"
   viewBox="0 0 371.26331 262.46667"
   version="1.1"
   id="svg8"
   sodipodi:docname="drawing.svg"
   inkscape:version="1.0.1 (3bc2e813f5, 2020-09-07)">
  <style
     id="style833"></style>
  <defs
     id="defs2">
    <linearGradient
       id="linearGradient4737">
      <stop
         style="stop-color:#ffffff;stop-opacity:1;"
         offset="0"
         id="stop4739" />
      <stop
         id="stop4747"
         offset="0.5"
         style="stop-color:#ffffff;stop-opacity:0.49803922;" />
      <stop
         style="stop-color:#ffffff;stop-opacity:0;"
         offset="1"
         id="stop4741" />
    </linearGradient>
    <linearGradient
       id="linearGradient3273">
      <stop
         style="stop-color:#ffffff;stop-opacity:1"
         offset="0"
         id="stop3275" />
      <stop
         style="stop-color:#ffff00;stop-opacity:0;"
         offset="1"
         id="stop3277" />
    </linearGradient>
    <inkscape:perspective
       sodipodi:type="inkscape:persp3d"
       inkscape:vp_x="0 : 491.64773 : 1"
       inkscape:vp_y="0 : 999.99992 : 0"
       inkscape:vp_z="744.09448 : 491.64773 : 1"
       inkscape:persp3d-origin="372.04724 : 316.25404 : 1"
       id="perspective2496" />
  </defs>
  <sodipodi:namedview
     id="base"
     pagecolor="#ffffff"
     bordercolor="#666666"
     borderopacity="1.0"
     inkscape:pageopacity="0.0"
     inkscape:pageshadow="2"
     inkscape:zoom="0.49497475"
     inkscape:cx="755.45729"
     inkscape:cy="272.265"
     inkscape:document-units="mm"
     inkscape:current-layer="layer1-9"
     inkscape:document-rotation="0"
     showgrid="true"
     fit-margin-top="0"
     fit-margin-left="0"
     fit-margin-right="0"
     fit-margin-bottom="0"
     inkscape:window-width="1920"
     inkscape:window-height="1017"
     inkscape:window-x="-8"
     inkscape:window-y="-8"
     inkscape:window-maximized="1"
     showguides="true"
     inkscape:pagecheckerboard="true">
    <inkscape:grid
       type="xygrid"
       id="grid904" />
  </sodipodi:namedview>
  <metadata
     id="metadata5">
    <rdf:RDF>
      <cc:Work
         rdf:about="">
        <dc:format>image/svg+xml</dc:format>
        <dc:type
           rdf:resource="http://purl.org/dc/dcmitype/StillImage" />
        <dc:title></dc:title>
      </cc:Work>
    </rdf:RDF>
  </metadata>
  <g
     inkscape:label="Layer 1"
     inkscape:groupmode="layer"
     id="layer1"
     transform="translate(40.48882,29.93571)">
    <g
       inkscape:label="Layer 1"
       id="layer1-9"
       transform="matrix(0.26458333,0,0,0.26458333,-25.725308,72.221126)">
      <path
         style="fill:#ffffff;stroke:#ffffff;stroke-width:1.42857"
         d="M -59.913395,93.895424 V -406.10458 H 645.80091 1351.5151 V 93.895424 593.89543 H 645.80091 -59.913395 Z"
         id="path891" />
      <g
         id="g902"
         transform="matrix(2.4068013,0,0,2.4068013,105.4102,-129.62231)">
        <path
           id="path11504"
           d="m 249.97524,186.86913 c -8.42054,-3.97941 -14.69543,-6.56405 -15.93595,-6.56405 -0.64994,0 -3.79725,-1.575 -6.99403,-3.5 -3.19678,-1.925 -6.32032,-3.49443 -6.94118,-3.48762 -0.62087,0.007 -2.18759,1.64604 -3.48161,3.64274 -1.81212,2.79614 -2.55542,3.31032 -3.23469,2.23762 -1.24581,-1.96739 -1.06354,-6.46285 0.53287,-13.14274 1.61533,-6.75904 0.83415,-7.2534 -4.50604,-2.85156 -1.93397,1.59414 -5.749,3.57826 -8.47785,4.40914 -2.72884,0.83089 -6.31153,2.19685 -7.96153,3.03547 -3.67129,1.86596 -16.10119,3.43871 -15.16158,1.91839 0.35034,-0.56686 2.69996,-1.34003 5.22137,-1.71813 2.5214,-0.37811 5.45194,-1.55504 6.51229,-2.61539 1.1036,-1.1036 3.30128,-1.92792 5.13994,-1.92792 1.78527,0 7.22662,-1.98146 12.25,-4.46081 10.45824,-5.16179 11.17991,-6.21654 12.44315,-18.18611 l 0.8288,-7.85308 0.13301,7.76715 c 0.10532,6.14983 -0.47184,9.58556 -2.77181,16.5 -1.59765,4.80307 -3.12709,10.95652 -3.39875,13.67435 l -0.49391,4.94149 1.84243,-2.44149 c 1.01334,-1.34283 2.35725,-4.4665 2.98646,-6.9415 l 1.14403,-4.5 1.88991,3.65982 c 1.88349,3.6474 6.28357,7.84018 8.22779,7.84018 0.56286,0 5.03107,1.84611 9.92933,4.10247 9.76765,4.49941 12.89151,4.71718 4.84506,0.33776 -2.78713,-1.51695 -5.06751,-3.10625 -5.06751,-3.53177 0,-0.42553 -0.90559,-1.06111 -2.01242,-1.4124 -3.0214,-0.95896 -6.98758,-7.43107 -6.98758,-11.40251 v -3.44218 l 2.31736,2.17705 c 3.9602,3.72041 14.55831,7.18833 28.18264,9.22195 13.7164,2.04735 24.49928,2.63132 15.5,0.83943 -13.14119,-2.61661 -15.6095,-3.23725 -17.46966,-4.39269 -1.11669,-0.69362 -4.73034,-1.55535 -8.03034,-1.91494 -8.44353,-0.92007 -12.88377,-4.09959 -16.54936,-11.85045 -7.86807,-16.63703 -7.63254,-35.11717 0.52938,-41.53734 2.58329,-2.03202 3.3413,-4.19438 1.47032,-4.19438 -1.45616,0 -7.08748,2.92302 -9.20034,4.77558 -1.58064,1.3859 -1.75,1.3727 -1.75,-0.13634 0,-4.70154 2.66584,-10.09028 6.21205,-12.55708 3.43268,-2.387826 4.97547,-5.082156 2.91007,-5.082156 -1.7622,0 -8.00772,3.00427 -8.80374,4.234846 -0.5155,0.79693 -1.00343,-0.40027 -1.31838,-3.234846 -0.72055,-6.484948 -3.31358,-6.165583 -4.05967,0.5 -0.30781,2.749996 -1.39326,7.558236 -2.41212,10.684966 l -1.85247,5.68497 -4.8714,-6.43497 c -2.67927,-3.53923 -5.25121,-6.43497 -5.71543,-6.43497 -0.46422,0 -1.38118,0.64722 -2.03769,1.43827 -0.96997,1.16874 -0.45803,2.10286 2.73185,4.98472 8.93556,8.07274 12.51305,35.3179 5.70058,43.41406 -1.31737,1.56561 -6.71126,5.00292 -11.98643,7.63848 -8.8317,4.41246 -9.99996,4.74351 -14.75295,4.18059 -4.76292,-0.5641 -12.74408,0.84632 -12.74442,2.25217 -8e-5,0.32544 3.93742,0.43285 8.75,0.23869 4.81258,-0.19416 8.44348,-0.0375 8.06867,0.34814 -0.85277,0.8774 -19.93063,1.54983 -22.78604,0.80312 -3.87889,-1.01435 10.59312,-5.54953 18.46751,-5.78727 4.2445,-0.12815 8.18093,-0.85836 10,-1.855 1.65,-0.90401 3.53698,-1.64642 4.1933,-1.64981 0.65631,-0.003 1.78131,-0.82329 2.5,-1.82201 0.71868,-0.99872 2.11452,-2.1174 3.10185,-2.48595 3.13931,-1.17182 4.71103,-6.92123 4.62437,-16.91608 -0.1008,-11.62712 -1.62952,-17.93553 -4.66952,-19.26925 -1.2375,-0.54292 -2.25,-1.78042 -2.25,-2.75 0,-0.96958 -0.675,-1.76287 -1.5,-1.76287 -0.825,0 -1.5,0.675 -1.5,1.5 0,0.825 0.35428,1.5 0.78729,1.5 0.43301,0 0.89016,1.35 1.01589,3 0.18159,2.38314 -0.17123,3 -1.71587,3 -1.06945,0 -2.57025,-0.6258 -3.33511,-1.39066 -1.18754,-1.18754 -1.72912,-1.13535 -3.708,0.35732 l -2.31734,1.74797 2.70761,0.67957 c 3.56513,0.89479 2.76294,3.0219 -1.29028,3.42131 -1.87813,0.18507 -3.08652,0.8174 -2.92298,1.52955 0.15333,0.66773 -0.17121,1.31325 -0.72121,1.43449 -0.55,0.12125 -1,-0.34205 -1,-1.02955 0,-0.6875 -0.44781,-1.56973 -0.99513,-1.96051 -0.59447,-0.42445 -0.19185,-1.30545 1,-2.18818 1.99323,-1.47624 1.99322,-1.47911 -0.005,-3.00768 -1.1,-0.84151 -2.7324,-1.54433 -3.62755,-1.56183 -0.89516,-0.0175 -2.19943,-0.72087 -2.89839,-1.56306 -1.05088,-1.26623 -0.94227,-1.77747 0.62756,-2.95386 1.6446,-1.23243 2.0468,-1.22825 3.00862,0.0312 1.16413,1.52443 3.40073,1.99096 3.37445,0.70387 -0.0414,-2.03026 -2.05789,-3.45584 -5.31653,-3.7587 -1.98361,-0.18436 -4.0736,-0.62384 -4.64442,-0.97663 -0.57083,-0.35279 -1.29693,0.0337 -1.61356,0.85881 -0.31663,0.82513 -1.18015,1.26828 -1.91893,0.98479 -0.87378,-0.3353 -1.45648,0.39663 -1.66724,2.09423 -0.17821,1.43532 -0.77096,2.48319 -1.31722,2.32859 -0.54627,-0.1546 -0.85775,-0.87102 -0.69217,-1.59204 0.53044,-2.30986 -4.90334,1.93424 -6.06321,4.73571 -0.8355,2.01804 -1.15391,2.2084 -1.47162,0.87979 -0.3349,-1.40053 -1.22651,-1.5982 -5.12587,-1.13637 -3.61545,0.42819 -5.03346,0.18189 -6.05767,-1.0522 -1.14342,-1.37774 -0.95006,-2.11886 1.33415,-5.11362 1.46929,-1.92625 2.19851,-3.50231 1.62052,-3.50231 -0.57799,0 -1.38839,0 -1.80089,0 -0.72504,0 -0.85705,0.39897 -1.125,3.4 -0.1371,1.53556 -7.125,2.05672 -7.125,0.53138 0,-0.47773 -0.675,-0.60959 -1.5,-0.29301 -2.30054,0.8828 -1.8101,-1.96361 0.59738,-3.46711 2.65789,-1.65988 1.78275,-2.71266 -1.01173,-1.2171 -1.67638,0.89717 -2.08565,0.82654 -2.08565,-0.35996 0,-0.81189 0.50779,-1.79 1.12842,-2.17357 0.76608,-0.47346 0.58593,-1.00098 -0.56104,-1.64286 -1.25287,-0.70114 -1.52394,-1.69905 -1.04896,-3.86162 0.52511,-2.390826 0.31093,-2.917551 -1.18896,-2.923948 -2.05848,-0.0088 -4.70827,-4.640046 -3.19125,-5.577615 0.52217,-0.322719 1.61875,-0.03125 2.43685,0.647712 1.20963,1.003904 1.74874,0.879902 2.88638,-0.66391 1.28353,-1.741792 1.15722,-1.924233 -1.53126,-2.211743 -3.45343,-0.369316 -3.90245,-1.908826 -0.6904,-2.367091 2.8311,-0.403914 3.72554,-3.819551 1.00021,-3.819551 -1.04866,0 -2.18523,-0.278571 -2.5257,-0.619048 -0.94027,-0.940268 1.89935,-3.377979 3.96428,-3.403188 1.53325,-0.01872 1.42589,-0.326607 -0.67857,-1.946008 -1.80938,-1.392338 -2.19823,-2.226641 -1.40762,-3.020146 0.79189,-0.79478 1.44451,-0.672091 2.37245,0.446008 1.88429,2.270436 3.25738,1.877645 1.79364,-0.513095 -1.06516,-1.739746 -0.98966,-2.208193 0.49153,-3.04969 0.9625,-0.546817 1.75,-1.646853 1.75,-2.444523 0,-1.841455 1.35614,-1.834621 4.95216,0.02495 2.48481,1.284945 2.92457,1.288357 3.40881,0.02645 0.30578,-0.796849 -0.21285,-1.922778 -1.1525,-2.502065 -1.41894,-0.874755 -1.20006,-1.030748 1.29153,-0.920484 5.72231,0.253239 6.34153,0.03087 5.78975,-2.079161 -0.60947,-2.330598 -2.28975,-2.697512 -2.28975,-0.5 0,0.833333 -0.88889,1.5 -2,1.5 -2.08471,0 -2.69712,-1.451121 -1.04367,-2.473008 0.52598,-0.325073 0.70283,-1.251631 0.39301,-2.059017 -0.40443,-1.053933 0.15534,-1.467975 1.98465,-1.467975 1.40139,0 2.82609,0.45 3.16601,1 0.93696,1.516038 7.76514,1.279827 7.22678,-0.25 -0.24194,-0.6875 -1.81514,-1.187922 -3.49601,-1.11205 -3.47765,0.156978 -4.91167,-2.574796 -2.97745,-5.671976 0.85722,-1.372621 0.808,-2.187163 -0.20598,-3.408939 -0.73279,-0.882952 -1.00642,-1.931285 -0.60808,-2.329629 0.39834,-0.398344 1.24997,-0.01201 1.8925,0.858522 0.64253,0.870531 2.39375,1.887889 3.8916,2.260794 2.18006,0.54275 2.60758,0.3763 2.14301,-0.834356 -0.31919,-0.831801 -0.0519,-1.512366 0.59403,-1.512366 0.7193,0 0.9284,-0.775007 0.5396,-2 -0.78681,-2.479008 1.11884,-2.65492 3.67739,-0.339464 1.00918,0.913295 2.15658,1.338827 2.54978,0.945627 0.3932,-0.3932 0.27794,-1.027941 -0.25613,-1.410536 -1.79911,-1.288835 -1.27309,-5.195627 0.69956,-5.195627 1.00617,0 1.8294,0.62254 1.8294,1.383423 0,0.760882 1.14678,1.602644 2.5484,1.87058 3.28641,0.628237 2.99968,-2.172412 -0.39571,-3.8652 -1.44751,-0.721661 -1.91129,-1.419964 -1.22483,-1.844215 0.60762,-0.375532 0.80368,-1.169957 0.43568,-1.76539 -0.368,-0.595433 0.18716,-1.725458 1.23369,-2.511166 1.81363,-1.361638 1.79001,-1.413089 -0.50428,-1.098296 -1.41213,0.193755 -2.60415,-0.249138 -2.88392,-1.071522 -0.36844,-1.083018 0.22696,-1.261017 2.61827,-0.782754 1.76535,0.35307 3.3735,0.16865 3.74302,-0.429242 0.35633,-0.57655 1.74447,-0.773042 3.08476,-0.436651 3.33986,0.83825 4.90547,-0.319198 2.65633,-1.963807 -3.55797,-2.601654 -0.26959,-2.728783 3.47423,-0.134313 2.10202,1.456704 4.47267,2.641919 5.26811,2.633811 0.79544,-0.0081 0.32125,-0.597496 -1.05375,-1.309752 -1.82833,-0.947082 -2.44934,-2.018413 -2.31142,-3.987571 0.16889,-2.41135 -0.0228,-2.579417 -1.83565,-1.609228 -2.39296,1.280678 -3.34571,0.647841 -2.46804,-1.639332 0.36452,-0.94992 1.2632,-1.404655 2.12354,-1.074513 1.78632,0.685474 1.95642,-0.500014 0.30824,-2.148194 -0.65084,-0.650834 -0.8371,-1.528334 -0.41392,-1.95 0.42317,-0.421667 1.59031,0.245833 2.59362,1.483333 2.13146,2.628958 3.20076,2.92728 2.32653,0.649075 -0.33788,-0.880508 0.0137,-2.013742 0.78138,-2.518296 1.15544,-0.759442 1.09083,-1.096957 -0.37531,-1.960536 -0.97407,-0.57374 -1.50926,-1.466724 -1.18931,-1.984408 0.86216,-1.395014 4.46034,0.826921 4.46034,2.754336 0,1.456766 0.17614,1.466358 1.75,0.0953 0.9625,-0.838474 2.36454,-1.303371 3.11565,-1.033102 0.75111,0.270268 1.71595,-0.07539 2.14408,-0.768123 0.5863,-0.948651 1.35913,-0.71852 3.13118,0.932402 l 2.35275,2.191922 1.75083,-2.162175 c 1.06672,-1.317343 2.37189,-1.923849 3.34033,-1.552226 1.35148,0.518614 1.20109,1.071548 -1.00435,3.69256 -1.42661,1.695436 -2.32796,3.512813 -2.003,4.038616 0.69608,1.126281 4.58512,0.0944 5.69153,-1.51013 0.53008,-0.76873 1.18572,-0.571509 2.11025,0.634781 0.73768,0.9625 1.85414,1.75 2.481,1.75 0.62687,0 1.13976,0.45 1.13976,1 0,1.392589 3.34686,1.253136 4.8,-0.2 0.93333,-0.933333 1.46667,-0.933333 2.4,0 1.61283,1.612831 2.8,1.514206 2.8,-0.232612 0,-1.720568 3.07652,-2.858992 5.35912,-1.983074 2.54318,0.97591 1.9499,-1.522859 -0.60912,-2.565477 l -2.25,-0.916715 2.23875,-0.664751 c 1.23132,-0.365613 2.00441,-1.043937 1.71798,-1.507387 -0.28643,-0.46345 -1.10927,-0.61681 -1.82854,-0.340801 -0.71927,0.276009 -1.88496,-0.193644 -2.59042,-1.043674 -1.11705,-1.345962 -0.81176,-1.545505 2.36454,-1.545505 2.97021,0 3.82362,0.464046 4.59769,2.5 0.52277,1.375 1.39751,2.5 1.94386,2.5 0.54636,0 0.71902,-0.714947 0.3837,-1.58877 -0.49856,-1.299236 0.041,-1.532711 2.96082,-1.281155 2.46172,0.21209 4.25866,-0.303786 5.78653,-1.66123 l 2.21604,-1.9688453 -0.50681,2.7500003 c -0.58267,3.161697 -0.0947,3.356235 2.99335,1.193296 2.06902,-1.449196 2.22251,-1.422054 2.22251,0.393011 0,2.050169 1.81797,3.163693 5.16512,3.163693 1.17038,0 1.81794,0.519077 1.5594,1.25 -0.25529,0.721742 -1.76963,1.14274 -3.58333,0.996194 -1.72766,-0.139593 -3.14119,0.197907 -3.14119,0.75 0,0.552093 0.9,1.003806 2,1.003806 1.11111,0 2,0.666667 2,1.499999 0,1.827117 1.15157,1.925835 2.91632,0.25 1.07827,-1.023945 1.23501,-0.654295 0.86673,2.044028 -0.24727,1.811716 -0.0943,3.513627 0.34001,3.782025 0.43427,0.268399 0.54888,1.115283 0.25468,1.881966 -0.36517,0.951615 0.35754,1.496787 2.27745,1.717975 2.31964,0.26724 2.85164,0.84657 3.03656,3.30669 0.12331,1.640476 0.91811,3.490086 1.76622,4.110243 0.84812,0.620157 1.54203,1.640449 1.54203,2.267316 0,1.585766 1.02948,1.423057 3.1525,-0.498255 1.36107,-1.231754 2.14296,-1.361665 3.15254,-0.523794 0.91311,0.757818 1.66901,0.787758 2.36316,0.0936 1.2476,-1.247598 10.52386,2.144375 11.17062,4.08467 0.28776,0.863284 -0.22961,1.114602 -1.57193,0.763578 -1.84778,-0.483205 -1.9217,-0.26527 -0.9661,2.848358 0.67445,2.197566 1.66185,3.3716 2.83561,3.3716 1.1899,0 1.60556,0.508877 1.22523,1.5 -0.36449,0.949843 0.0138,1.5 1.03138,1.5 0.89163,0 1.60699,0.816122 1.60699,1.833333 0,2.54019 -1.06614,3.356664 -2.65799,2.035546 -0.90416,-0.75047 -1.34191,-0.769621 -1.34191,-0.05871 0,0.580281 0.89086,1.337804 1.97969,1.683385 1.08882,0.34558 1.93553,0.938405 1.88158,1.317387 -0.31224,2.193011 0.51996,2.707637 3.88873,2.40476 3.26624,-0.293657 3.90893,0.01398 4.98196,2.384722 1.05779,2.337049 0.94714,3.182734 -0.78262,5.981546 -1.30088,2.104865 -1.64298,3.489339 -0.96565,3.907951 0.57691,0.356553 0.77653,1.089035 0.44359,1.627738 -0.38097,0.616431 -1.1283,0.545437 -2.01631,-0.191543 -1.1197,-0.929272 -1.41097,-0.823104 -1.41097,0.5143 0,1.156229 0.67717,1.587086 2.15705,1.372444 1.18637,-0.172072 2.34887,0.249642 2.58333,0.937142 0.23446,0.6875 -0.0915,1.25 -0.72443,1.25 -0.69565,0 -0.89969,0.790939 -0.51595,2 0.50286,1.584375 0.1797,2 -1.55506,2 -1.70358,0 -1.94588,0.293944 -1.09118,1.323794 0.8046,0.969481 0.77046,1.657544 -0.12755,2.570762 -0.9764,0.992932 -0.66597,1.108606 1.52379,0.567799 1.75447,-0.433304 2.75,-0.277916 2.75,0.429237 0,0.609624 -0.64844,1.108408 -1.44098,1.108408 -0.79254,0 -1.72599,0.461149 -2.07433,1.024777 -0.34834,0.563627 -0.0936,0.901127 0.56598,0.75 2.19943,-0.503908 2.15023,2.215352 -0.0548,3.03106 -1.94906,0.721006 -2.00889,0.938432 -0.58374,2.121203 2.03432,1.688335 2.11202,4.488055 0.10316,3.717185 -0.8846,-0.33946 -1.9298,0.26185 -2.58582,1.48764 -0.96939,1.81132 -0.86168,1.9814 0.90059,1.42208 2.5408,-0.80642 3.76994,1.01092 1.53111,2.26383 -1.50788,0.84385 -1.45059,1.06398 0.55653,2.13815 1.41681,0.75826 2.0193,1.76598 1.64265,2.74751 -0.32715,0.85253 -0.0864,2.16269 0.53506,2.91148 0.86558,1.04295 0.75266,1.50617 -0.48275,1.98024 -2.02872,0.77849 -2.09531,3.00564 -0.11262,3.76647 0.825,0.31658 1.5,1.03972 1.5,1.60699 0,0.56726 -0.675,1.03138 -1.5,1.03138 -0.825,0 -1.5,-0.45 -1.5,-1 0,-0.55 -0.675,-1 -1.5,-1 -0.83333,0 -1.5,0.88889 -1.5,2 0,1.1 -0.5625,1.99311 -1.25,1.98469 -2.26129,-0.0277 -3.90923,-1.66557 -3.57679,-3.55492 0.19363,-1.10046 -0.34204,-1.99526 -1.31456,-2.19592 -1.40114,-0.28909 -1.57033,0.41791 -1.15608,4.83081 0.52486,5.59114 -1.03632,6.24523 -2.20509,0.92387 -0.45091,-2.0528 -1.25777,-2.98853 -2.57698,-2.98853 -2.14333,0 -2.61013,1.58705 -0.67054,2.27976 0.6875,0.24554 0.92337,0.79716 0.52417,1.22584 -0.39921,0.42867 -1.40425,0.21637 -2.23343,-0.47179 -1.26088,-1.04644 -1.6699,-0.82429 -2.49942,1.3575 -1.34738,3.5439 -2.4299,3.30158 -1.69375,-0.37914 0.52546,-2.62733 0.26906,-3.07465 -2.125,-3.70736 -1.49742,-0.39574 -3.25119,-0.61427 -3.89727,-0.48562 -0.64609,0.12864 -1.80358,-0.66395 -2.57221,-1.76132 -1.29414,-1.84764 -1.5629,-1.87939 -3.63331,-0.42921 -2.07141,1.45087 -2.11001,1.658 -0.52502,2.81697 2.07689,1.51866 1.05812,3.55437 -1.77878,3.55437 -1.76968,0 -1.9785,0.43738 -1.45604,3.04971 0.70576,3.5288 -0.96129,3.12901 -2.36674,-0.56758 -0.61327,-1.61302 -1.45674,-2.17367 -2.75817,-1.83334 -1.03111,0.26964 -2.46091,-0.21603 -3.17733,-1.07927 -1.73279,-2.08788 -3.21664,-1.99397 -2.85154,0.18048 0.21613,1.2872 -0.30119,1.687 -1.95616,1.51179 -1.2375,-0.13102 -2.25,0.20648 -2.25,0.75 0,0.54352 -0.45,0.98821 -1,0.98821 -0.55,0 -1,-0.8449 -1,-1.87756 0,-3.45078 -2.12645,-4.1451 -8.29984,-2.71005 -5.12462,1.19126 -7.38395,0.74629 -4.68385,-0.92247 1.74417,-1.07796 0.0946,-2.33125 -2.26731,-1.72263 -2.03404,0.52415 -2.11284,0.41359 -0.82437,-1.15676 1.30931,-1.59574 1.18789,-1.67934 -1.5,-1.03274 -1.60855,0.38696 -3.1216,0.87473 -3.36234,1.08393 -0.24074,0.20921 -0.63001,3.03888 -0.86505,6.28818 -0.87459,12.09108 4.15141,29.02598 9.81032,33.05548 1.48279,1.05584 4.90018,2.41065 7.59421,3.01068 2.69403,0.60003 7.16202,2.15837 9.92888,3.46298 2.76686,1.30461 7.94186,2.69832 11.5,3.09714 6.99034,0.78351 13.00302,3.06378 16.96935,6.43549 l 2.5,2.12521 -3,-0.48613 c -1.65,-0.26737 -4.8,-1.02185 -7,-1.67663 -4.59798,-1.36847 -14.00329,-2.65742 -27.20166,-3.72784 -5.06091,-0.41045 -9.76341,-1.30878 -10.45,-1.99628 -0.68659,-0.6875 -2.09986,-1.25 -3.14061,-1.25 -1.04075,0 -3.03644,-0.9 -4.43486,-2 -2.96008,-2.3284 -4.27287,-2.53399 -4.27287,-0.66916 0,1.21096 1.20266,2.38831 9,8.81055 1.375,1.13251 5.2,3.42204 8.5,5.08784 3.3,1.6658 6.225,3.35528 6.5,3.75439 0.275,0.39912 1.85,1.44806 3.5,2.33098 l 3,1.60532 -4,0.004 c -2.2,0.002 -6.25,-1.05979 -9,-2.35939 z m 10.90144,-63.1678 c 0.35137,-0.91567 1.25537,-1.35818 2.10699,-1.03139 0.82036,0.3148 1.49157,0.14507 1.49157,-0.37719 0,-0.52226 -1.125,-1.23192 -2.5,-1.57703 -1.375,-0.3451 -2.5,-1.11867 -2.5,-1.71905 0,-0.70822 -0.43606,-0.65553 -1.24164,0.15005 -0.98886,0.98886 -0.98196,1.40213 0.0339,2.02995 0.70267,0.43428 0.9877,1.53834 0.63465,2.45836 -0.35247,0.91853 -0.19086,1.67005 0.35914,1.67005 0.55,0 1.27694,-0.72169 1.61542,-1.60375 z m 30.01523,-3.39625 c 2.22222,0 3.25,-0.47436 3.25,-1.5 0,-0.825 -0.61584,-1.5 -1.36852,-1.5 -1.98618,0 -6.31165,3.03587 -6.2192,4.36501 0.0505,0.72601 0.26069,0.68457 0.58333,-0.11501 0.27741,-0.6875 1.96689,-1.25 3.75439,-1.25 z m -42.67542,-2.25 c 1.08698,-1.37783 1.29434,-4.75 0.29208,-4.75 -1.26783,0 -3.03333,2.44453 -3.03333,4.2 0,2.087 1.31979,2.3518 2.74125,0.55 z m 50.75875,-1.25 c 0,-1.00833 -0.5625,-2.02083 -1.25,-2.25 -0.79167,-0.26389 -1.25,0.56111 -1.25,2.25 0,1.68889 0.45833,2.51389 1.25,2.25 0.6875,-0.22917 1.25,-1.24167 1.25,-2.25 z m 7.40032,-0.25 c -0.15403,-4.24936 -1.37751,-7.90495 -2.20018,-6.57383 -0.39295,0.6358 -0.27385,2.31485 0.26465,3.73123 0.53851,1.41638 0.71858,3.25414 0.40017,4.08392 -0.31842,0.82977 -0.0808,1.50868 0.52805,1.50868 0.60885,0 1.06213,-1.2375 1.00731,-2.75 z m -65.90032,-0.25 c 0,-0.55 -0.92656,-1 -2.05902,-1 -1.13246,0 -1.7809,0.45 -1.44098,1 0.33992,0.55 1.26648,1 2.05902,1 0.79254,0 1.44098,-0.45 1.44098,-1 z m 13.2,-0.2 c -0.93333,-0.93333 -1.46667,-0.93333 -2.4,0 -0.93333,0.93333 -0.66667,1.2 1.2,1.2 1.86667,0 2.13333,-0.26667 1.2,-1.2 z m -95.20001,-0.8 c 0,-0.55 -0.45,-1 -1,-1 -0.55,0 -1,0.45 -1,1 0,0.55 0.45,1 1,1 0.55,0 1,-0.45 1,-1 z m 115.12918,-2.27083 c -1.66487,-1.66487 -2.60779,-0.0108 -1.05822,1.85632 0.93718,1.12923 1.47919,1.26409 1.755,0.43666 0.21948,-0.65843 -0.0941,-1.69028 -0.69678,-2.29298 z m 19.43822,1.02083 c 0.3862,-1.2375 1.20026,-2.56876 1.80903,-2.95836 0.79326,-0.50766 0.75507,-1.06015 -0.13478,-1.95 -0.6829,-0.6829 -1.24164,-1.77418 -1.24164,-2.42506 0,-1.41505 4.81706,-2.5216 5.58288,-1.28247 0.29434,0.47624 1.35752,0.86589 2.36264,0.86589 1.26256,0 1.96244,-0.91954 2.26407,-2.97465 0.40237,-2.74153 0.24164,-2.92572 -2.05093,-2.35032 -2.15257,0.54026 -2.38067,0.36853 -1.69406,-1.275346 0.4364,-1.04483 0.87742,-2.694206 0.98004,-3.665293 0.30158,-2.853788 2.31914,-4.373877 3.80536,-2.867066 1.00147,1.015349 0.90515,1.522122 -0.48446,2.548876 -1.6005,1.182582 -1.43602,2.583803 0.3033,2.583803 1.33784,0 3.05444,-6.305777 1.90927,-7.01353 -0.57522,-0.355503 -0.75526,-1.403623 -0.4001,-2.329155 0.66998,-1.74595 -1.08588,-4.657315 -2.80886,-4.657315 -0.56082,0 -0.7064,1.113865 -0.33763,2.583178 0.51744,2.061654 0.23649,2.690878 -1.39159,3.116631 -1.12196,0.2934 -2.03993,1.15597 -2.03993,1.916822 0,0.760853 -0.45,1.383369 -1,1.383369 -0.55,0 -1,1.26 -1,2.8 0,4.567626 -3.31631,6.922426 -4.32371,3.07012 -0.38565,-1.474728 -1.06189,-1.936129 -2.19842,-1.500001 -0.9028,0.346435 -2.95464,0.629881 -4.55966,0.629881 -1.9273,0 -2.91821,0.50934 -2.91821,1.5 0,0.884346 0.92347,1.506276 2.25,1.515306 1.2375,0.008 2.87329,0.41006 3.6351,0.89252 2.02911,1.28506 -2.38148,3.43274 -5.75727,2.80342 -1.44531,-0.26943 -3.52783,-0.12132 -4.62783,0.32915 -1.89638,0.77659 -1.79479,1.04775 0.5,1.3346 0.55,0.0687 1,0.4625 1,0.875 0,0.4125 0,1.2 0,1.75 0,0.55 -0.9,1 -2,1 -2.0399,0 -2.70817,1.44429 -1.12189,2.42467 1.25606,0.77628 9.10378,-3.6796 9.11364,-5.17467 0.004,-0.6875 0.90825,-1.25 2.00825,-1.25 1.66667,0 2,0.66667 2,4 0,3.37155 -0.3235,4 -2.05902,4 -1.13246,0 -1.7809,0.45 -1.44098,1 1.2051,1.94989 5.33427,1.0992 6.06739,-1.25 z m -128.02771,-3.32887 c -0.12492,-3.69974 0.28842,-4.92736 2.15285,-6.39392 2.34124,-1.84163 3.08284,-4.02721 1.36648,-4.02721 -0.51754,0 -1.22648,0.46193 -1.57541,1.02652 -0.34893,0.56459 -1.36192,0.90209 -2.25107,0.75 -1.30618,-0.22342 -1.6072,0.6357 -1.56744,4.47348 0.0271,2.6125 -0.40625,4.75 -0.96293,4.75 -0.55668,0 -0.19766,0.9 0.79783,2 0.99549,1.1 1.89645,2 2.00214,2 0.10569,0 0.12259,-2.06049 0.0376,-4.57887 z m 28.46031,3.57887 c 0,-0.55 -0.675,-1 -1.5,-1 -0.825,0 -1.5,0.45 -1.5,1 0,0.55 0.675,1 1.5,1 0.825,0 1.5,-0.45 1.5,-1 z m -0.38759,-4.53121 c 1.93406,-2.95176 0.88383,-4.86792 -1.14634,-2.0915 -0.93663,1.28091 -2.17689,1.71998 -3.91824,1.3871 -2.77083,-0.52968 -3.22587,0.15757 -1.34783,2.03561 1.94259,1.94259 4.63334,1.38399 6.41241,-1.33121 z m 6.22174,-1.4085 c 0.22704,-1.55126 -0.0935,-2.14211 -1,-1.84334 -0.73378,0.24184 -1.48452,1.46708 -1.6683,2.72276 -0.22704,1.55126 0.0935,2.14211 1,1.84334 0.73378,-0.24184 1.48452,-1.46708 1.6683,-2.72276 z m 4.16585,1.93971 c 0,-0.55 -0.70156,-1 -1.55902,-1 -0.85746,0 -1.2809,0.45 -0.94098,1 0.33992,0.55 1.04148,1 1.55902,1 0.51754,0 0.94098,-0.45 0.94098,-1 z m 61.2697,-2.56064 c -1.32994,-2.78892 -2.13919,-3.44208 -3.73382,-3.01365 -1.11973,0.30084 -2.82337,0.55313 -3.78587,0.56064 -1.03959,0.008 -1.75,0.7748 -1.75,1.88865 0,1.37179 0.72685,1.875 2.70833,1.875 1.48959,0 2.87709,0.50625 3.08334,1.125 0.20625,0.61875 1.45522,1.125 2.77548,1.125 h 2.40049 z m 35.73031,1.56064 c 0,-0.55 -0.45,-1 -1,-1 -0.55,0 -1,0.45 -1,1 0,0.55 0.45,1 1,1 0.55,0 1,-0.45 1,-1 z M 184.2044,108.70091 c -0.33229,-0.33229 -1.19479,-0.36781 -1.91667,-0.0789 -0.79773,0.31922 -0.56078,0.55618 0.60417,0.60416 1.05416,0.0434 1.64479,-0.19292 1.3125,-0.52522 z m 30.08888,-1.89583 c -1.04173,-2.28634 -2.81805,-3.43907 -2.81805,-1.82874 0,0.6901 3.05428,4.32874 3.63355,4.32874 0.17796,0 -0.18901,-1.125 -0.8155,-2.5 z m -41.42504,-0.0818 c 0.85118,-2.21811 0.78614,-2.4182 -0.78602,-2.4182 -1.50843,0 -2.84457,2.42909 -1.87142,3.40223 1.02842,1.02842 2.0271,0.65862 2.65744,-0.98402 z m 102.45306,-0.9182 c -0.14277,-0.55 -1.85404,-1.55572 -3.80282,-2.23494 -4.29594,-1.49729 -4.04324,-1.47873 -4.04324,-0.297 0,1.23907 5.0894,4.04828 6.80282,3.75497 0.71655,-0.12267 1.18601,-0.67303 1.04324,-1.22303 z m -124.45088,-2.91254 c -0.32081,-0.836 0.20219,-1.58807 1.28139,-1.8426 1.48719,-0.35078 1.30434,-0.64349 -0.99168,-1.587466 -1.5483,-0.63656 -3.7983,-1.14308 -5,-1.12559 -1.90701,0.0278 -1.98623,0.18675 -0.62293,1.25 0.85909,0.670006 1.85746,2.005696 2.21862,2.968196 0.36115,0.9625 1.33164,1.75 2.15664,1.75 0.88121,0 1.27639,-0.58271 0.95796,-1.41254 z m 8.60481,-0.52844 c 0,-1.06754 0.45,-2.2191 1,-2.559016 1.95692,-1.20944 0.95494,-2.5 -1.94098,-2.5 -3.45907,0 -5.04479,1.86883 -2.69942,3.181366 0.90222,0.5049 1.6404,1.57065 1.6404,2.36832 0,0.79767 0.45,1.45031 1,1.45031 0.55,0 1,-0.87344 1,-1.94098 z m 14.60417,-2.788186 c -1.01652,-1.01651 -1.85525,0.513886 -1.02122,1.863376 0.63003,1.01942 0.86558,1.02021 1.2043,0.004 0.2316,-0.69479 0.14921,-1.535116 -0.18308,-1.867416 z m 83.86885,-1.22716 c 0.32507,-0.525975 1.13913,-0.758959 1.80902,-0.517738 0.66988,0.241222 2.29349,-0.390407 3.60802,-1.403619 l 2.39006,-1.842203 -2.14006,-2.140055 c -2.1736,-2.173602 -7.14005,-2.966597 -7.14005,-1.140055 0,0.55 0.675,1 1.5,1 0.825,0 1.5,0.401855 1.5,0.893011 0,1.187003 -3.06146,2.468628 -5.25,2.197818 -1.92315,-0.237971 -2.03783,-0.0045 -1.14301,2.327384 0.66458,1.731867 3.92335,2.150737 4.86602,0.625457 z m 10.02699,-1.04367 c 0.33992,-0.55 0.16803,-1 -0.38197,-1 -0.55,0 -1.27811,0.45 -1.61803,1 -0.33992,0.55 -0.16803,1 0.38197,1 0.55,0 1.27811,-0.45 1.61803,-1 z m -19.5,-1 c 0,-0.55 -0.19844,-1 -0.44098,-1 -0.24254,0 -0.7191,0.45 -1.05902,1 -0.33992,0.55 -0.14148,1 0.44098,1 0.58246,0 1.05902,-0.45 1.05902,-1 z m 28.18714,-1.77465 c -0.25568,-1.818644 0.17076,-2.22535 2.33334,-2.22535 3.17824,0 2.88924,-2.161869 -0.35521,-2.657007 -1.30688,-0.199444 -2.46703,0.279817 -2.80418,1.15841 -0.74723,1.947233 -2.77337,1.911688 -4.42434,-0.07762 -1.07881,-1.299877 -1.07482,-1.720416 0.0227,-2.398723 2.06494,-1.276201 -1.97436,-1.855052 -4.70945,-0.674887 -2.68182,1.157183 -2.9458,3.456856 -0.5,4.355799 0.9625,0.353762 2.12382,1.264592 2.58072,2.024066 0.60605,1.007395 1.18155,1.089705 2.12786,0.304336 0.98116,-0.814289 1.43142,-0.563015 1.8484,1.031522 0.77383,2.959124 4.30675,2.193794 3.88016,-0.840548 z m -123.68715,-0.22535 c -0.33992,-0.55 -1.04148,-1 -1.55902,-1 -0.51754,0 -0.94098,0.45 -0.94098,1 0,0.55 0.70156,1 1.55902,1 0.85746,0 1.2809,-0.45 0.94098,-1 z m 65.48469,-2.75 c 0.008,-0.6875 -0.87504,-1.25 -1.96325,-1.25 -1.75347,0 -1.84751,0.287636 -0.82656,2.528378 0.8357,1.834146 1.37476,2.177366 1.96325,1.25 0.44618,-0.703108 0.81814,-1.840878 0.82656,-2.528378 z m 70.01532,1.75 c -1.21185,-2.264369 -3.03223,-2.567766 -4.8,-0.8 -2.01597,2.01597 -1.36209,2.8 2.33518,2.8 3.22531,0 3.44136,-0.175311 2.46482,-2 z m 6,0.468615 c 0,-1.639778 -2.66872,-3.133224 -3.72013,-2.081821 -0.34863,0.348629 0.23328,1.28991 1.29313,2.091735 2.42267,1.83286 2.427,1.832842 2.427,-0.0099 z m -96.58621,-0.329135 c 0.81711,-1.322109 -0.31973,-1.97684 -2.46046,-1.417028 -1.06196,0.277711 -1.68435,0.903768 -1.38308,1.391238 0.70009,1.132757 3.14924,1.149191 3.84354,0.02579 z m -13.80139,-3.670688 c 2.08708,-3.185291 1.45589,-3.849305 -2.22372,-2.33938 -2.30958,0.947731 -2.52721,1.270804 -1.08559,1.61153 1.43218,0.338493 1.56128,0.717543 0.62756,1.842609 -0.81622,0.983489 -0.8395,1.416449 -0.0762,1.416449 0.60467,0 1.84572,-1.139044 2.75791,-2.531208 z m -21.81857,-0.218792 c -0.29587,-1.762097 -1.65489,-3.206329 -3.04384,-3.234687 -0.92874,-0.01896 -0.99484,3.406508 -0.0833,4.31802 1.33841,1.338415 3.41312,0.619684 3.12717,-1.083333 z m 27.20616,1.309017 c 0,-0.242541 -0.45,-0.719098 -1,-1.059017 -0.55,-0.339919 -1,-0.141476 -1,0.440983 0,0.582459 0.45,1.059017 1,1.059017 0.55,0 1,-0.198442 1,-0.440983 z m 42.43403,-2.247676 c 0.42198,-1.099663 0.13757,-1.360921 -1.00447,-0.922682 -0.87622,0.336238 -1.78132,0.611341 -2.01134,0.611341 -0.23001,0 -0.41821,0.660877 -0.41821,1.468615 0,1.837764 2.62406,0.953448 3.43402,-1.157274 z m -63.59603,-1.212313 c 0.26651,-1.877053 -0.0152,-2.245019 -1.33179,-1.739784 -0.91838,0.352416 -1.85798,0.640756 -2.088,0.640756 -0.23001,0 -0.41821,0.932996 -0.41821,2.073324 0,2.945325 3.40417,2.081157 3.838,-0.974296 z m 84.16201,2.383782 c 0,-1.538998 -1.49169,-3.48281 -2.67273,-3.48281 -2.08347,0 -5.46917,1.961381 -4.91988,2.850154 0.43934,0.71087 7.59261,1.306918 7.59261,0.632656 z m -96.00001,-2.423793 c 0,-2.652634 -1.85977,-3.603542 -2.68412,-1.372399 -0.3685,0.99736 -1.15282,2.143991 -1.74294,2.548069 -0.59012,0.404078 0.16456,0.741578 1.67706,0.75 2.06072,0.01148 2.75,-0.471188 2.75,-1.92567 z m 20,0.92567 c 1.33333,-0.875277 1.33333,-1.094097 0,-1.969374 -2.24832,-1.475927 -3,-1.229203 -3,0.984687 0,2.21389 0.75168,2.460614 3,0.984687 z m 112.10381,-1.280888 c -1.28349,-1.283486 -2.58505,-0.291503 -1.63484,1.245982 0.36808,0.595563 1.12735,0.799712 1.68727,0.453663 0.683,-0.422119 0.66575,-0.981465 -0.0524,-1.699645 z m -137.57677,-0.78901 c 0.34891,-1.099298 -0.23183,-2.619582 -1.47589,-3.863637 -2.64906,-2.649062 -2.87664,-2.589095 -2.26749,0.597473 0.31377,1.641357 0.12171,2.410922 -0.50502,2.023581 -0.55624,-0.343774 -1.7607,0.202981 -2.67657,1.215012 -1.59066,1.757656 -1.48577,1.840055 2.34224,1.840055 2.99102,0 4.15339,-0.459721 4.58273,-1.812484 z m 148.47297,0.526194 c 0,-0.857459 -0.45,-1.280902 -1,-0.940983 -0.55,0.339919 -1,1.041476 -1,1.559017 0,0.517541 0.45,0.940983 1,0.940983 0.55,0 1,-0.701558 1,-1.559017 z m -42,-0.444115 c 0,-0.483359 -0.40939,-1.131852 -0.90976,-1.441095 -1.14158,-0.70554 -4.226,0.41554 -3.66054,1.330479 0.63189,1.022419 4.5703,1.117741 4.5703,0.110616 z m -55.00001,-3.38846 c 0,-1.751923 -0.70735,-2.569126 -2.64464,-3.055355 -3.25042,-0.815804 -5.50971,0.945796 -2.45602,1.914998 1.15536,0.366698 2.10066,1.3114 2.10066,2.099337 0,0.787936 0.675,1.432612 1.5,1.432612 0.9152,0 1.5,-0.932399 1.5,-2.391592 z m 41.00001,0.891592 c 0,-0.825 -0.42344,-1.5 -0.94098,-1.5 -1.26098,0 -2.1641,1.561589 -1.36517,2.36052 1.12619,1.126184 2.30615,0.68589 2.30615,-0.86052 z m 55.00096,-0.150368 c 2.93246,-1.462901 3.1203,-1.787798 1.65364,-2.860242 -0.91003,-0.665431 -1.6546,-1.670282 -1.6546,-2.233001 0,-1.424554 -4.288,-2.40843 -5.05908,-1.160799 -0.36481,0.590281 -1.81912,0.722099 -3.4502,0.312724 -2.40499,-0.603613 -2.72187,-0.453076 -2.15514,1.023797 0.36543,0.952305 0.66442,2.180414 0.66442,2.729132 0,0.595398 1.24977,0.723172 3.09955,0.316893 2.81866,-0.619083 3.0391,-0.490354 2.43261,1.420545 -0.80392,2.532916 0.11045,2.625186 4.4688,0.450951 z m -72.2511,-1.933101 c -0.95295,-0.952958 -2.8635,0.590599 -2.1533,1.7397 0.42212,0.683003 0.98146,0.665748 1.69964,-0.05243 0.58876,-0.588756 0.79291,-1.348027 0.45366,-1.687268 z m -49.74987,0.583469 c 0,-0.55 -1.15156,-1 -2.55902,-1 -1.45136,0 -2.2915,0.432842 -1.94098,1 0.33992,0.55 1.49148,1 2.55902,1 1.06754,0 1.94098,-0.45 1.94098,-1 z m 7.55541,-2.25 c -0.14883,-1.7875 -0.33468,-3.5875 -0.413,-4 -0.0783,-0.4125 -1.32251,-0.75 -2.76485,-0.75 -2.20751,0 -2.42718,0.235287 -1.38834,1.487014 0.70782,0.852871 0.96514,2.558687 0.6034,4 -0.54414,2.16802 -0.29687,2.512986 1.80133,2.512986 2.13269,0 2.39874,-0.400038 2.16146,-3.25 z m 32.29041,0.239784 c 0.1902,-1.369381 0.82654,-3.074869 1.4141,-3.789972 1.91154,-2.326513 -1.38651,-4.454291 -5.66115,-3.652363 -4.16269,0.780926 -4.37625,3.1144 -0.24388,2.664702 2.08899,-0.22733 2.64511,0.1406 2.64511,1.75 0,1.144755 -0.65738,2.037849 -1.5,2.037849 -0.825,0 -1.5,0.6 -1.5,1.333333 0,3.627592 4.33695,3.320119 4.84582,-0.343549 z m 47.95155,0.01022 c 1.49126,0 1.9654,0.454657 1.56427,1.5 -0.36449,0.949843 0.0138,1.5 1.03138,1.5 2.04602,0 2.03283,-0.871975 -0.048,-3.171259 -1.96462,-2.170888 -4.18358,-2.31269 -7.69362,-0.49166 -1.9413,1.00716 -2.29365,1.620659 -1.42796,2.486346 0.86568,0.865688 1.55452,0.782514 2.79166,-0.337081 0.90331,-0.81749 2.60533,-1.486346 3.78227,-1.486346 z m -96.47528,-0.39698 c 0.34319,-0.894327 -0.30602,-1.557956 -1.80429,-1.844368 -2.05922,-0.393646 -2.202,-0.225833 -1.18853,1.39698 1.3764,2.203967 2.26764,2.337196 2.99282,0.447388 z m 64.25702,-0.03926 c 0.89785,-0.897849 1.0585,-1.669697 0.42857,-2.059017 -1.36099,-0.841139 -3.00767,0.283565 -3.00767,2.054274 0,1.824389 0.75806,1.825782 2.5791,0.0047 z m -25.28936,-1.56376 c -0.28766,-1.1 -0.92053,-2 -1.40638,-2 -1.04547,0 -1.08193,0.318997 -0.27638,2.418213 0.88109,2.296076 2.30032,1.943356 1.68276,-0.418213 z m 67.14516,1.024751 c 1.41081,-0.536387 2.5651,-1.661387 2.5651,-2.5 0,-1.726804 -1.5616,-2.043119 -2.51008,-0.508439 -0.34546,0.558971 -1.06857,0.744096 -1.60691,0.411387 -1.64082,-1.014086 -3.89019,0.39002 -3.25916,2.034447 0.69068,1.799889 1.35303,1.877344 4.81105,0.562605 z m 32.68537,-3.382056 c 0.77746,-2.907045 -1.11215,-4.642695 -5.05453,-4.642695 -1.13616,0 -2.06574,-0.45 -2.06574,-1 0,-1.422356 -1.3092,-1.238421 -3.55887,0.5 -1.88539,1.456927 -1.88791,1.541233 -0.0876,2.935907 1.34217,1.039793 2.53255,1.177725 4.3151,0.5 3.36087,-1.277824 4.33137,-1.177566 4.33137,0.447458 0,0.760852 -0.90186,1.619209 -2.00413,1.907459 -1.29742,0.339283 -1.79714,1.06349 -1.41714,2.053755 0.89408,2.329924 4.69092,0.478699 5.54154,-2.701888 z m -148.62028,1.357301 c 0.33992,-0.55 0.14148,-1 -0.44098,-1 -0.58246,0 -1.05902,0.45 -1.05902,1 0,0.55 0.19844,1 0.44098,1 0.24254,0 0.7191,-0.45 1.05902,-1 z m 35.25047,-0.75 c 0.24153,-0.725405 -0.43336,-1.25 -1.60812,-1.25 -2.18691,0 -3.5031,1.30592 -2.41393,2.395089 1.00617,1.00617 3.54658,0.282907 4.02205,-1.145089 z m 36.70683,-1.319098 c -0.94036,-1.521544 -2.44282,-1.056767 -1.82112,0.563354 0.31537,0.821841 0.98359,1.240747 1.48493,0.930902 0.50134,-0.309845 0.65263,-0.98226 0.33619,-1.494256 z m -62.19551,-1.72189 c -0.26486,-2.456178 1.19974,-2.960696 2.43852,-0.840006 0.43983,0.752953 1.81219,1.683278 3.04969,2.067388 1.69882,0.5273 2.25,0.299022 2.25,-0.931865 0,-0.99889 0.67773,-1.515429 1.75,-1.333773 0.9625,0.163059 1.75,-0.146154 1.75,-0.687142 0,-0.540988 -1.575,-0.992037 -3.5,-1.002333 -3.88915,-0.0208 -6.32695,-1.143244 -5.47541,-2.521062 0.30646,-0.495872 -0.5506,-1.179628 -1.9046,-1.519459 -5.2342,-1.313701 -8.65644,1.274388 -4.39819,3.326162 1.25301,0.603745 1.68612,1.128174 0.96246,1.165398 -0.72366,0.03722 -2.15885,-0.383537 -3.18931,-0.935024 -2.41774,-1.293932 -3.66775,0.487109 -1.86576,2.658371 3.08347,3.715351 8.51342,4.084807 8.1326,0.553345 z m 87.07369,-3.24444 c 3.17046,-1.870617 5.35459,-5.616661 4.03523,-6.920902 -0.30248,-0.299018 -1.52214,0.624138 -2.71034,2.051459 -1.1882,1.427321 -2.94786,2.875698 -3.91036,3.218615 -0.9625,0.342918 -1.75,1.31261 -1.75,2.154871 0,1.958991 0.20044,1.935688 4.33547,-0.504043 z m -6.81953,-1.214572 c 0.41207,-1.2375 0.80205,-3.366502 0.86664,-4.731116 0.0835,-1.764925 1.12772,-3.002319 3.61742,-4.286726 l 3.5,-1.805608 -4,0.590043 c -6.0846,0.897543 -7.41151,1.449546 -8.53625,3.551132 -0.86458,1.615492 -0.70046,1.932275 1.00107,1.932275 2.40922,0 2.62853,1.262672 0.52285,3.010234 -1.15031,0.954667 -1.24069,1.582438 -0.37756,2.622445 1.61241,1.942834 2.54552,1.701004 3.40583,-0.882679 z m -10.51594,0.410515 c 0,-1.176722 -4.95249,-3.307909 -6.07494,-2.614202 -1.74839,1.080565 -0.92115,2.321435 1.82494,2.737433 1.5125,0.229124 3.0875,0.484014 3.5,0.566422 0.4125,0.08241 0.75,-0.227936 0.75,-0.689653 z m 32.75,-1.104077 c 3.04393,-2.539342 2.93095,-5.056438 -0.22695,-5.056438 -2.66579,0 -6.17411,4.137554 -5.05023,5.956024 0.94536,1.529619 2.72994,1.225406 5.27718,-0.899586 z m 36.84515,0.0487 c -2.03969,-2.253835 -6.59515,-3.381886 -6.59515,-1.633133 0,1.990415 1.23286,2.579624 2.75477,1.316557 1.14296,-0.948577 1.63471,-0.843992 2.3917,0.508676 0.5241,0.936519 1.45029,1.702762 2.05821,1.702762 0.60791,0 0.33362,-0.852688 -0.60953,-1.894862 z M 185.72523,67.913038 c 1.10575,-0.839383 1.75,-2.675407 1.75,-4.987249 0,-3.484696 -0.13087,-3.627414 -2.75,-2.999081 -3.68603,0.884284 -4.05521,1.348254 -1.99167,2.503069 2.65458,1.485575 2.13026,3.189653 -0.75833,2.464663 -2.95614,-0.741943 -3.11168,-0.259287 -0.75,2.327311 2.1294,2.332199 2.3032,2.358898 4.5,0.691287 z m 33.17579,-1.275171 c 0.97299,-2.535556 -1.04387,-3.914924 -2.29797,-1.571625 -1.011,1.889089 -0.62266,3.238842 0.93186,3.238842 0.39949,0 1.01424,-0.750248 1.36611,-1.667217 z m 60.39064,-1.591334 c 0.21943,-1.901101 0.89104,-2.741449 2.19099,-2.741449 2.41746,0 3.64639,1.977898 1.89967,3.05743 -0.74204,0.458603 -1.05463,1.128353 -0.69465,1.488333 0.35998,0.359979 1.24695,0.27367 1.97104,-0.191799 0.72409,-0.465469 2.65621,-0.84803 4.2936,-0.850136 2.03478,-0.0026 3.08666,-0.557731 3.32332,-1.753828 0.21208,-1.071856 -0.26342,-1.75 -1.22707,-1.75 -0.86532,0 -1.57332,-0.675 -1.57332,-1.5 0,-0.825 0.1882,-1.5 0.41821,-1.5 0.23002,0 1.13002,-0.273145 2,-0.606989 1.05231,-0.403809 1.58179,-0.04932 1.58179,1.059017 0,0.916303 0.46971,1.375708 1.0438,1.020899 0.5741,-0.354809 1.65252,-0.139925 2.39649,0.477521 1.08027,0.896539 1.32318,0.61193 1.2062,-1.413204 -0.11325,-1.960476 -0.68477,-2.535992 -2.51893,-2.536538 -2.08488,-6.2e-4 -2.20757,-0.199377 -1.01218,-1.639731 0.74815,-0.901464 1.22075,-2.813964 1.05022,-4.25 -0.62079,-5.227671 -6.37826,-6.817613 -9.44138,-2.607263 -1.46991,2.020436 -1.56256,2.782292 -0.53786,4.423097 0.68086,1.090229 0.9474,2.27276 0.59232,2.627848 -1.06862,1.068616 -2.77868,-0.539898 -2.77868,-2.613674 0,-1.076331 -0.68219,-1.940983 -1.53138,-1.940983 -2.0809,0 -3.09388,2.995537 -1.3727,4.059284 1.12908,0.697807 1.14846,1.096341 0.10408,2.140716 -1.04438,1.044375 -1.43175,1.043056 -2.08077,-0.0071 -0.83995,-1.35906 -3.71423,-1.115861 -8.4294,0.71323 -1.5456,0.599561 -2.53154,1.540954 -2.19099,2.091984 0.89678,1.451014 2.58923,1.232146 4.60941,-0.596088 2.65506,-2.402802 3.89561,-0.999894 2.75826,3.119254 -0.53237,1.928068 -0.67816,3.974447 -0.32399,4.547511 1.20838,1.955191 3.95205,0.461122 4.2739,-2.327355 z M 176.8051,64.887843 c 0.63222,-1.64753 -1.306,-2.582759 -5.35264,-2.582759 -3.69881,0 -4.76488,1.752552 -1.79147,2.945072 3.46164,1.388334 6.53208,1.232616 7.14411,-0.362313 z m -13.32987,-0.582759 c 0,-0.55 -0.45,-1 -1,-1 -0.55,0 -1,0.45 -1,1 0,0.55 0.45,1 1,1 0.55,0 1,-0.45 1,-1 z m 91.00001,0 c 0,-0.55 -0.675,-1 -1.5,-1 -0.825,0 -1.5,0.45 -1.5,1 0,0.55 0.675,1 1.5,1 0.825,0 1.5,-0.45 1.5,-1 z m -32.00001,-1 c 0,-0.55 -0.47656,-1 -1.05902,-1 -0.58246,0 -0.7809,0.45 -0.44098,1 0.33992,0.55 0.81648,1 1.05902,1 0.24254,0 0.44098,-0.45 0.44098,-1 z m 42.96366,-0.456195 c 0.66469,-0.800907 0.94333,-1.885299 0.6192,-2.409758 -0.88517,-1.432227 0.43772,-4.134047 2.02414,-4.134047 0.76615,0 1.39301,-0.873442 1.39301,-1.940983 0,-2.831565 1.84159,-3.512353 4.06301,-1.501991 1.62946,1.474638 1.93699,1.511841 1.93699,0.234325 0,-1.612218 -4.67963,-6.791351 -6.13636,-6.791351 -0.475,0 -0.86364,-0.50625 -0.86364,-1.125 0,-0.716667 1.08889,-0.907222 3,-0.525 2.24859,0.449718 3,0.230556 3,-0.875 0,-1.642161 -3.00186,-4.973417 -5.125,-5.687379 -1.16004,-0.390093 -1.15494,-0.728928 0.0326,-2.167381 2.28518,-2.767971 0.11281,-3.788138 -4.95329,-2.326115 -3.33614,0.962773 -4.53455,1.840306 -4.77388,3.495672 -0.39846,2.756125 1.38584,2.889148 2.81957,0.210203 0.5887,-1.1 1.53486,-2 2.10257,-2 0.57713,0 0.75235,0.881754 0.39743,2 -0.45047,1.419321 -0.1797,2 0.93261,2 2.2979,0 1.91188,1.676651 -0.53323,2.316061 -1.17813,0.308089 -1.80651,1.025193 -1.4309,1.632943 0.36835,0.595991 1.0918,0.822758 1.60768,0.503926 0.51588,-0.318832 1.22819,0.236328 1.5829,1.233688 0.35472,0.99736 1.32128,2.600882 2.14793,3.563382 1.34552,1.566653 1.33048,1.75 -0.14353,1.75 -0.90558,0 -2.20857,-0.9 -2.89553,-2 -0.68696,-1.1 -2.30328,-2 -3.59181,-2 -2.9459,0 -2.38496,2.372742 0.66704,2.821494 1.20258,0.176822 1.94749,0.708228 1.65536,1.180902 -0.29213,0.472674 -0.0738,1.142059 0.48517,1.487523 1.78041,1.100353 1.16272,4.510081 -0.81702,4.510081 -2.54019,0 -3.35667,-1.066142 -2.03555,-2.657991 0.89052,-1.073009 0.49972,-1.342009 -1.94966,-1.342009 -3.43411,0 -5.16164,1.757019 -3.05958,3.111803 1.1699,0.753998 1.16884,1.023049 -0.007,1.78071 -1.09707,0.706913 -0.88911,1.166447 1,2.209805 1.31181,0.72451 2.98706,1.194091 3.72279,1.043512 0.92938,-0.190212 1.13774,0.356219 0.68261,1.790196 -0.75666,2.384053 0.67385,2.739892 2.44335,0.607779 z m -47.78112,-2.473836 c 2.68325,-1.336075 3.82936,-1.150218 7.01951,1.138297 2.7514,1.97378 3.53086,-0.191619 0.85099,-2.364131 -2.07331,-1.680783 -2.26419,-2.276388 -1.24999,-3.900351 1.66239,-2.661926 1.53946,-2.943784 -1.284,-2.943784 -1.81235,0 -2.65004,0.673727 -3.10841,2.5 -0.72464,2.887233 -1.91694,3.20461 -3.22927,0.859602 -1.13353,-2.0255 -3.18137,-0.93159 -3.18137,1.699415 0,1.067541 -0.50625,1.828483 -1.125,1.690983 -0.61875,-0.1375 -1.31865,0.274708 -1.55534,0.916018 -0.23669,0.641311 0.38206,1.349639 1.375,1.574064 2.17572,0.49176 2.13131,0.501229 5.48788,-1.170113 z m 15.31337,0.180031 c -1.16455,-2.838085 -1.07941,-4.505284 0.2541,-4.975705 0.6875,-0.242529 1.25,0.271538 1.25,1.142372 0,2.04274 1.88211,2.054126 2.66417,0.01612 0.8098,-2.11031 -0.42282,-3.058165 -5.0482,-3.881948 -3.25289,-0.579343 -3.78809,-0.441762 -3.29367,0.846684 0.32469,0.846137 0.0918,1.846532 -0.51746,2.223099 -0.74549,0.460735 -0.55542,1.088595 0.58113,1.919657 0.92892,0.679243 1.6188,1.623053 1.53307,2.097356 -0.31655,1.751226 0.12012,2.362365 1.68795,2.362365 1.13735,0 1.39713,-0.511432 0.88891,-1.75 z m -26.52734,0 c -0.088,-2.100059 -9.97236,-6.67078 -9.96587,-4.608408 0.003,0.976473 6.84899,5.085256 8.7473,5.249956 0.6875,0.05965 1.23586,-0.229048 1.21857,-0.641548 z m -31.96857,-3.25 c 0,-1.252922 -1.06124,-1.252922 -3,0 -1.21296,0.783874 -1.06944,0.972305 0.75,0.984687 1.2375,0.0084 2.25,-0.434687 2.25,-0.984687 z m 5.8125,-1.9375 c 0.25,-0.75 -0.125,-1.125 -0.875,-0.875 -0.72187,0.240625 -1.50937,1.028125 -1.75,1.75 -0.25,0.75 0.125,1.125 0.875,0.875 0.72188,-0.240625 1.50938,-1.028125 1.75,-1.75 z m 21.47336,-3.077362 c -0.40517,-1.5494 -0.15253,-1.871206 1.09362,-1.393011 0.92304,0.354201 1.62052,0.119992 1.62052,-0.544155 0,-0.641303 -0.39901,-0.919403 -0.88669,-0.617999 -0.48768,0.301403 -1.44278,-0.122039 -2.12245,-0.940983 -0.67966,-0.818945 -2.11097,-1.48899 -3.18069,-1.48899 -1.54835,0 -1.80866,0.458803 -1.27658,2.25 1.15508,3.888497 5.74465,6.529993 4.75227,2.735138 z m -24.28586,-0.510138 c 0,-0.894444 1.24044,-1.773087 3,-2.125 3.65377,-0.730755 3.77061,-1.485282 0.46727,-3.017682 -2.16919,-1.006271 -2.47913,-0.937156 -2.2422,0.5 0.20291,1.23084 -0.60036,1.751552 -3.06654,1.987863 -3.23302,0.309788 -3.28479,0.382822 -1.59502,2.25 2.10058,2.32111 3.43649,2.478481 3.43649,0.404819 z m 81.00001,-4.473379 c 0,-0.963002 -3.68741,-1.980873 -4.4421,-1.226192 -0.30684,0.306847 -0.5579,1.618278 -0.5579,2.914291 0,2.283628 0.0772,2.305808 2.5,0.718323 1.375,-0.900935 2.5,-1.983824 2.5,-2.406422 z m -36.41822,1.998379 c 0.78001,0 1.41821,-0.723145 1.41821,-1.606989 0,-1.07324 -0.54031,-1.399652 -1.62675,-0.982747 -1.66733,0.639815 -4.37325,-0.942597 -4.37325,-2.55746 0,-0.496268 1.1436,-1.3371 2.54132,-1.868515 1.39773,-0.531414 3.31023,-2.317431 4.25001,-3.968926 0.93977,-1.651495 2.27118,-3.005563 2.95868,-3.00904 1.6502,-0.0083 1.57967,0.560908 -0.45406,3.664774 -1.67445,2.555522 -1.66806,2.578242 0.36753,1.306997 3.12824,-1.953618 5.54111,-0.646371 4.3909,2.378907 -1.00177,2.634851 -0.36084,6.642999 1.06226,6.642999 0.48585,0 0.93468,-0.5625 0.99739,-1.25 0.42594,-4.669603 0.8847,-6.879087 1.77287,-8.538661 0.74743,-1.396572 0.56659,-2.782619 -0.68594,-5.257478 -1.35679,-2.680882 -2.40912,-3.436979 -5.20095,-3.736888 -1.925,-0.206791 -4.21043,-1.015206 -5.07874,-1.796478 -0.86832,-0.781272 -2.34491,-1.420495 -3.28134,-1.420495 -1.31926,0 -1.65028,0.776551 -1.47029,3.449195 0.1332,1.977882 -0.42845,4.217359 -1.31668,5.25 -0.85193,0.990443 -1.82824,2.588305 -2.16958,3.550805 -0.36965,1.04234 -1.64424,1.75 -3.15199,1.75 -1.39227,0 -2.53139,0.45 -2.53139,1 0,0.55 0.41425,1 0.92055,1 0.50629,0 1.21103,1.322599 1.56608,2.939109 0.6335,2.884337 3.20226,4.269077 6.34516,3.42048 0.73248,-0.197774 1.96998,-0.359589 2.75,-0.359589 z m 28.41822,-0.418213 c 0,-0.230016 0.27314,-1.130016 0.60699,-2 0.43514,-1.133949 0.0105,-1.581787 -1.5,-1.581787 -1.44032,0 -2.10699,0.632815 -2.10699,2 0,1.111111 0.66667,2 1.5,2 0.825,0 1.5,-0.188196 1.5,-0.418213 z m -61.8854,-2.106787 c -0.0195,-0.53625 -1.04418,-1.130719 -2.27715,-1.321042 -1.96935,-0.303991 -2.07744,-0.148047 -0.88953,1.283305 1.41019,1.699175 3.22777,1.720834 3.16668,0.03774 z m 19.29555,-2.574277 c -2.06798,-2.285083 -3.41016,-2.442801 -3.41016,-0.400723 0,0.825 0.675,1.5 1.5,1.5 0.825,0 1.5,0.476558 1.5,1.059017 0,0.582459 0.47931,0.762785 1.06514,0.400723 0.69725,-0.430924 0.47102,-1.314793 -0.65498,-2.559017 z m 78.58985,0.658294 c 0,-0.242541 -0.45,-0.719098 -1,-1.059017 -0.55,-0.339919 -1,-0.141476 -1,0.440983 0,0.582459 0.45,1.059017 1,1.059017 0.55,0 1,-0.198442 1,-0.440983 z m -46.16785,-4.661847 c 0.98051,-1.570057 2.0549,-1.993978 4.24054,-1.673193 1.98143,0.290812 2.92731,9.18e-4 2.92731,-0.89717 0,-0.729744 -0.6383,-1.326807 -1.41844,-1.326807 -0.78014,0 -2.32958,-1.4625 -3.4432,-3.25 -2.25283,-3.616071 -5.71044,-6.132501 -7.17904,-5.22486 -1.388,0.857833 -1.17798,2.47486 0.32144,2.47486 0.70442,0 1.81296,1.409937 2.46341,3.133194 0.96194,2.54847 0.90955,3.523107 -0.28076,5.222506 -0.80488,1.149122 -1.46341,2.439185 -1.46341,2.866806 0,1.591588 2.56436,0.704712 3.83215,-1.325336 z m -30.47053,-2.39717 c -0.31659,-0.825 -0.96334,-1.5 -1.43723,-1.5 -0.4739,0 -0.60261,0.675 -0.28603,1.5 0.31659,0.825 0.96334,1.5 1.43723,1.5 0.4739,0 0.60261,-0.675 0.28603,-1.5 z m 44.42225,0.654738 c 0.70613,-0.448051 1.0221,-1.496802 0.70216,-2.330558 -0.41916,-1.092301 0.62865,-1.978163 3.74956,-3.17005 2.3822,-0.909772 5.07717,-1.65413 5.98883,-1.65413 2.46773,0 3.17512,-1.884945 1.72455,-4.595353 -1.71862,-3.211264 -3.0926,-3.048629 -2.73682,0.323948 0.26028,2.467217 -0.0235,2.730645 -2.96215,2.75 -1.7875,0.01177 -3.25,-0.316095 -3.25,-0.728595 0,-0.4125 -0.9,-0.75 -2,-0.75 -1.36314,0 -2,0.666667 -2,2.09362 0,1.252615 -0.8034,2.303712 -2,2.616631 -1.24121,0.324584 -2,1.364016 -2,2.739714 0,3.426317 1.92839,4.51662 4.78387,2.704773 z m -39.78388,-2.654738 c 0,-0.862179 -0.90249,-1.5 -2.12244,-1.5 -1.77324,0 -1.91763,0.246798 -0.87756,1.5 0.68469,0.825 1.63979,1.5 2.12245,1.5 0.48265,0 0.87755,-0.675 0.87755,-1.5 z m -17.0318,-0.4841 c -0.0175,-0.283745 -0.6296,-1.3034 -1.36025,-2.2659 -1.52212,-2.005146 -4.73265,-2.373499 -4.35795,-0.5 0.16445,0.822253 -1.03346,1.25 -3.50066,1.25 -3.57148,0 -4.44133,0.474681 -3.18043,1.735581 0.70279,0.702781 12.44333,0.494771 12.39929,-0.219681 z m 8.5318,-1.093255 3,-2.064177 -3.5,0.688363 c -4.13281,0.812821 -5,1.24853 -5,2.512186 0,1.540115 2.30106,1.064685 5.5,-1.136372 z m 41.50001,-2.39126 c 0,-0.892084 -0.5866,-1.243517 -1.49426,-0.895215 -0.82184,0.31537 -1.24528,0.976246 -0.94098,1.468615 0.87262,1.411923 2.43524,1.043989 2.43524,-0.5734 z m -31.00001,-2.56277 c 0,-2.661269 -2.74236,-3.65483 -4.69587,-1.701321 -1.96238,1.962381 -0.89294,3.732706 2.25489,3.732706 1.78688,0 2.44098,-0.544338 2.44098,-2.031385 z m -10.5676,0.140769 c 0.65499,-1.059795 -3.92727,-4.281177 -4.81996,-3.388488 -0.68433,0.68433 2.2421,4.279104 3.48353,4.279104 0.4323,0 1.03369,-0.400777 1.33643,-0.890616 z m 44.56761,-1.002395 c 0,-0.92061 -2.36727,-2.106989 -4.20423,-2.106989 -0.63011,0 -0.54954,0.591767 0.20423,1.5 1.35856,1.63697 4,2.0378 4,0.606989 z m -7.31487,-2.485134 c -0.29086,-0.75798 -0.0315,-1.87548 0.57635,-2.483333 1.61315,-1.61315 0.0591,-2.649493 -1.73731,-1.158577 -2.42675,2.014016 -1.8256,4.24263 1.33282,4.941108 0.19634,0.04342 0.11901,-0.541218 -0.17186,-1.299198 z m 16.70788,-0.203642 c 0.85768,-2.235067 0.79004,-2.418213 -0.89301,-2.418213 -0.83333,0 -1.5,0.888889 -1.5,2 0,2.384246 1.53559,2.652613 2.39301,0.418213 z m -47.29224,-0.61346 c 3.32151,-1.167921 3.34207,-1.209194 0.89922,-1.805333 -1.92397,-0.469516 -2.42248,-1.147844 -2.16355,-2.94399 0.27934,-1.93777 -0.0181,-2.241192 -1.75236,-1.78767 -1.33544,0.349225 -2.42616,-0.05139 -3.02417,-1.110762 -1.07822,-1.910078 -2.46308,-0.888453 -3.51491,2.593003 -0.40866,1.35261 -0.25407,2.25 0.3876,2.25 0.58707,0 1.06739,-0.45 1.06739,-1 0,-0.55 0.675,-1 1.5,-1 1.36915,0 1.89282,1.406416 1.76865,4.749999 -0.0576,1.550282 0.55905,1.557269 4.83213,0.05475 z m 9.04002,0.195247 c 0.53748,0 0.69912,-0.45 0.3592,-1 -0.7445,-1.204629 -5.5,-1.348735 -5.5,-0.166667 0,1.434025 1.33766,2.251073 2.77955,1.697766 0.76122,-0.292104 1.82378,-0.531099 2.36125,-0.531099 z m 32.51283,-0.134033 c -1.32326,-0.769152 -2.15905,-0.760537 -2.95,0.03041 -0.80483,0.804833 -0.30495,1.095392 1.84638,1.073216 2.58611,-0.02666 2.72225,-0.162791 1.10362,-1.103624 z M 251.453,19.08647 c 0.0122,-0.395239 -0.65276,-0.459594 -1.47776,-0.143011 -0.825,0.316582 -1.5,0.940654 -1.5,1.386827 0,0.446173 -0.26689,1.635528 -0.59309,2.643011 -0.42357,1.308218 -0.001,1.117227 1.47777,-0.668212 1.13897,-1.375 2.08085,-2.823377 2.09308,-3.218615 z m 7.20557,-0.998052 c -0.71756,-0.717562 -1.18333,-0.776604 -1.18333,-0.15 0,1.334781 1.18261,2.517391 1.85,1.85 0.28417,-0.284166 -0.0158,-1.049166 -0.66667,-1.7 z M 145.47523,118.30508 c 0,-1.1 0.45,-2 1,-2 0.55,0 1,0.9 1,2 0,1.1 -0.45,2 -1,2 -0.55,0 -1,-0.9 -1,-2 z"
           style="fill:#000000" />
        <path
           id="path11504-7"
           d="m 249.97432,186.86913 c -8.42053,-3.97941 -14.69545,-6.56405 -15.93598,-6.56405 -0.64999,0 -3.79722,-1.575 -6.99411,-3.5 -3.1967,-1.925 -6.32023,-3.49443 -6.94108,-3.48762 -0.62087,0.007 -2.18759,1.64604 -3.48161,3.64274 -1.81213,2.79614 -2.55544,3.31032 -3.2347,2.23762 -1.24582,-1.96739 -1.06357,-6.46285 0.53288,-13.14274 1.61532,-6.75904 0.83415,-7.2534 -4.50605,-2.85156 -1.93398,1.59414 -5.74902,3.57826 -8.47787,4.40914 -2.72883,0.83089 -6.31153,2.19685 -7.96153,3.03547 -3.67129,1.86596 -16.1012,3.43871 -15.16159,1.91839 0.35033,-0.56686 2.69996,-1.34003 5.22137,-1.71813 2.52141,-0.37811 5.45195,-1.55504 6.51229,-2.61539 1.10361,-1.1036 3.30129,-1.92792 5.13995,-1.92792 1.78527,0 7.22662,-1.98146 12.25001,-4.46081 10.45824,-5.16179 11.17989,-6.21654 12.44313,-18.18611 l 0.82883,-7.85308 0.13289,7.76715 c 0.10542,6.14983 -0.47171,9.58556 -2.77168,16.5 -1.59767,4.80307 -3.1271,10.95652 -3.39876,13.67435 l -0.49393,4.94149 1.84244,-2.44149 c 1.01338,-1.34283 2.35724,-4.4665 2.98647,-6.9415 l 1.14402,-4.5 1.88994,3.65982 c 1.88351,3.6474 6.2836,7.84018 8.22777,7.84018 0.56291,0 5.03108,1.84611 9.92934,4.10247 9.7677,4.49941 12.89147,4.71718 4.84501,0.33776 -2.78707,-1.51695 -5.06753,-3.10625 -5.06753,-3.53177 0,-0.42553 -0.90551,-1.06111 -2.01232,-1.4124 -3.02141,-0.95896 -6.98767,-7.43107 -6.98767,-11.40251 v -3.44218 l 2.31735,2.17705 c 3.96029,3.72041 14.55832,7.18833 28.18273,9.22195 13.71644,2.04735 24.49931,2.63132 15.49994,0.83943 -13.14111,-2.61661 -15.60945,-3.23725 -17.46955,-4.39269 -1.1167,-0.69362 -4.73037,-1.55535 -8.03041,-1.91494 -8.44348,-0.92007 -12.88373,-4.09959 -16.54931,-11.85045 -7.86821,-16.63703 -7.63259,-35.11717 0.52921,-41.53734 2.58334,-2.03202 3.34142,-4.19437 1.47046,-4.19437 -1.45617,0 -7.08746,2.92301 -9.20035,4.77557 -1.58064,1.3859 -1.75022,1.3727 -1.75022,-0.13634 0,-4.70153 2.66604,-10.09027 6.21226,-12.55708 3.43272,-2.387826 4.9753,-5.082156 2.91009,-5.082156 -1.7622,0 -8.00777,3.00427 -8.80391,4.234846 -0.51534,0.79693 -1.00326,-0.40027 -1.31822,-3.234846 -0.72054,-6.484948 -3.31374,-6.165583 -4.05968,0.5 -0.30784,2.749996 -1.39319,7.558246 -2.41217,10.684976 l -1.85243,5.68496 -4.87141,-6.43496 c -2.67927,-3.53923 -5.25121,-6.43498 -5.71543,-6.43498 -0.46423,0 -1.38118,0.64722 -2.03769,1.43828 -0.96998,1.16874 -0.45803,2.10286 2.73185,4.98472 8.93558,8.07273 12.513,35.31789 5.7006,43.41405 -1.31738,1.56561 -6.71128,5.00292 -11.98646,7.63848 -8.8317,4.41246 -9.99996,4.74351 -14.75295,4.18059 -4.76293,-0.5641 -12.74409,0.84632 -12.74444,2.25217 -7e-5,0.32544 3.93743,0.43285 8.75001,0.23869 4.81258,-0.19416 8.44349,-0.0375 8.06868,0.34814 -0.85278,0.8774 -19.93065,1.54983 -22.78606,0.80312 -3.87889,-1.01435 10.59313,-5.54953 18.46753,-5.78727 4.2445,-0.12815 8.18093,-0.85836 10,-1.855 1.64999,-0.90401 3.53698,-1.64642 4.1933,-1.64981 0.65631,-0.003 1.78132,-0.82329 2.5,-1.82201 0.71869,-0.99872 2.11453,-2.1174 3.10186,-2.48595 3.13931,-1.17182 4.71104,-6.92123 4.62436,-16.91608 -0.10077,-11.62712 -1.6295,-17.93553 -4.66952,-19.26925 -1.23749,-0.54292 -2.24999,-1.78042 -2.24999,-2.75 0,-0.96958 -0.67501,-1.76287 -1.5,-1.76287 -0.82501,0 -1.50001,0.675 -1.50001,1.5 0,0.825 0.35429,1.5 0.78729,1.5 0.43302,0 0.89016,1.35 1.01589,3 0.1816,2.38314 -0.17123,3 -1.71587,3 -1.06945,0 -2.57025,-0.6258 -3.33511,-1.39066 -1.18755,-1.18754 -1.72912,-1.13535 -3.708,0.35732 l -2.31734,1.74797 2.70761,0.67957 c 3.56513,0.89479 2.76293,3.0219 -1.29028,3.42131 -1.87813,0.18507 -3.08652,0.8174 -2.92298,1.52955 0.15333,0.66773 -0.17122,1.31325 -0.72121,1.43449 -0.55,0.12125 -1.00001,-0.34205 -1.00001,-1.02955 0,-0.6875 -0.4478,-1.56973 -0.99512,-1.96051 -0.59448,-0.42445 -0.19185,-1.30545 1,-2.18818 1.99323,-1.47624 1.99322,-1.47911 -0.004,-3.00768 -1.1,-0.84151 -2.73241,-1.54433 -3.62755,-1.56183 -0.89517,-0.0175 -2.19944,-0.72087 -2.8984,-1.56306 -1.05088,-1.26623 -0.94227,-1.77747 0.62756,-2.95386 1.64461,-1.23243 2.04681,-1.22825 3.00862,0.0312 1.16415,1.52443 3.40074,1.99096 3.37445,0.70387 -0.0414,-2.03026 -2.05788,-3.45584 -5.31652,-3.7587 -1.98362,-0.18436 -4.07361,-0.62384 -4.64443,-0.97663 -0.57083,-0.35278 -1.29693,0.0337 -1.61357,0.85881 -0.31662,0.82513 -1.18014,1.26828 -1.91893,0.98479 -0.87378,-0.3353 -1.45647,0.39663 -1.66724,2.09423 -0.1782,1.43532 -0.77095,2.48319 -1.31721,2.32859 -0.54627,-0.1546 -0.85776,-0.87102 -0.69217,-1.59204 0.53044,-2.30986 -4.90335,1.93424 -6.06322,4.73571 -0.8355,2.01804 -1.15391,2.2084 -1.47162,0.87979 -0.3349,-1.40053 -1.22651,-1.5982 -5.12587,-1.13637 -3.61545,0.42819 -5.03347,0.18189 -6.05768,-1.0522 -1.14342,-1.37774 -0.95005,-2.11886 1.33417,-5.11362 1.46929,-1.92625 2.1985,-3.5023 1.62051,-3.5023 -0.57799,0 -1.38839,0 -1.8009,0 -0.72504,0 -0.85705,0.39897 -1.12499,3.39999 -0.1371,1.53556 -7.12501,2.05672 -7.12501,0.53138 0,-0.47773 -0.67499,-0.60959 -1.5,-0.29301 -2.30054,0.8828 -1.8101,-1.96361 0.59739,-3.4671 2.65788,-1.65988 1.78275,-2.71266 -1.01174,-1.2171 -1.67638,0.89717 -2.08566,0.82654 -2.08566,-0.35996 0,-0.81189 0.50779,-1.79 1.12842,-2.17357 0.76609,-0.47346 0.58594,-1.00098 -0.56103,-1.64286 -1.25287,-0.70114 -1.52394,-1.69905 -1.04896,-3.86163 0.52511,-2.390826 0.31092,-2.917551 -1.18896,-2.923948 -2.05847,-0.0088 -4.70828,-4.640046 -3.19126,-5.577615 0.52217,-0.322719 1.61877,-0.03125 2.43685,0.647712 1.20963,1.003904 1.74875,0.879902 2.88639,-0.66391 1.28351,-1.741792 1.1572,-1.924233 -1.53127,-2.211743 -3.45349,-0.369316 -3.90251,-1.908826 -0.69047,-2.367091 2.83111,-0.403914 3.72555,-3.819551 1.00021,-3.819551 -1.04865,0 -2.18523,-0.278571 -2.52569,-0.619048 -0.94027,-0.940268 1.89935,-3.377979 3.96427,-3.403188 1.53326,-0.01872 1.42588,-0.326607 -0.67856,-1.946008 -1.80939,-1.392338 -2.19823,-2.226641 -1.40763,-3.020146 0.7919,-0.79478 1.44452,-0.672091 2.37246,0.446008 1.88429,2.270436 3.25738,1.877645 1.79364,-0.513095 -1.06516,-1.739746 -0.98966,-2.208193 0.49153,-3.04969 0.9625,-0.546817 1.75,-1.646853 1.75,-2.444523 0,-1.841455 1.35614,-1.834621 4.95216,0.02495 2.48481,1.284945 2.92458,1.288357 3.40881,0.02645 0.30579,-0.796849 -0.21285,-1.922778 -1.15249,-2.502065 -1.41895,-0.874755 -1.20006,-1.030748 1.29153,-0.920484 5.72231,0.253239 6.34153,0.03087 5.78976,-2.079161 -0.60948,-2.330598 -2.28976,-2.697512 -2.28976,-0.5 0,0.833333 -0.88889,1.5 -2,1.5 -2.08471,0 -2.69712,-1.451121 -1.04368,-2.473008 0.52599,-0.325073 0.70284,-1.251631 0.39301,-2.059017 -0.40442,-1.053933 0.15535,-1.467975 1.98466,-1.467975 1.40139,0 2.8261,0.45 3.16601,1 0.93696,1.516038 7.76514,1.279827 7.22678,-0.25 -0.24193,-0.6875 -1.81514,-1.187922 -3.49601,-1.11205 -3.47766,0.156978 -4.91168,-2.574796 -2.97745,-5.671976 0.85722,-1.372621 0.80801,-2.187163 -0.20598,-3.408939 -0.73279,-0.882952 -1.00642,-1.931285 -0.60808,-2.329629 0.39834,-0.398344 1.24997,-0.01201 1.8925,0.858522 0.64253,0.870531 2.39375,1.887889 3.89159,2.260794 2.18008,0.54275 2.6076,0.3763 2.14303,-0.834356 -0.31919,-0.831801 -0.0519,-1.512366 0.59402,-1.512366 0.71931,0 0.92841,-0.775007 0.5396,-2 -0.78681,-2.479008 1.11885,-2.65492 3.6774,-0.339464 1.00917,0.913295 2.15659,1.338827 2.54978,0.945627 0.3932,-0.3932 0.27794,-1.027941 -0.25613,-1.410536 -1.79911,-1.288835 -1.2731,-5.195627 0.69956,-5.195627 1.00617,0 1.8294,0.62254 1.8294,1.383423 0,0.760882 1.14678,1.602644 2.5484,1.87058 3.28642,0.628237 2.99968,-2.172412 -0.39572,-3.8652 -1.4475,-0.721661 -1.91128,-1.419964 -1.22482,-1.844215 0.60762,-0.375532 0.80368,-1.169957 0.43567,-1.76539 -0.36799,-0.595433 0.18718,-1.725458 1.23369,-2.511166 1.81365,-1.361638 1.79002,-1.413089 -0.50426,-1.098296 -1.41214,0.193755 -2.60416,-0.249138 -2.88393,-1.071522 -0.36844,-1.083018 0.22696,-1.261017 2.61827,-0.782754 1.76535,0.35307 3.3735,0.16865 3.74302,-0.429242 0.35633,-0.57655 1.74447,-0.773042 3.08477,-0.436651 3.33986,0.83825 4.90548,-0.319198 2.65633,-1.963807 -3.55797,-2.601654 -0.26959,-2.728783 3.47423,-0.134313 2.10202,1.456704 4.47267,2.641919 5.26811,2.633811 0.79544,-0.0081 0.32125,-0.597496 -1.05375,-1.309752 -1.82832,-0.947082 -2.44934,-2.018413 -2.31142,-3.987571 0.16889,-2.411351 -0.0228,-2.579418 -1.83564,-1.609228 -2.39297,1.280678 -3.34572,0.647841 -2.46805,-1.639333 0.36452,-0.94992 1.2632,-1.404655 2.12354,-1.074513 1.78632,0.685474 1.95643,-0.500014 0.30824,-2.148194 -0.65084,-0.650834 -0.8371,-1.528334 -0.41391,-1.95 0.42316,-0.421667 1.5903,0.245833 2.59362,1.483333 2.13146,2.628958 3.20075,2.92728 2.32651,0.649075 -0.33787,-0.880508 0.0137,-2.013742 0.78139,-2.518296 1.15545,-0.759442 1.09082,-1.096957 -0.3753,-1.960536 -0.97407,-0.57374 -1.50926,-1.466724 -1.18931,-1.984408 0.86215,-1.395014 4.46034,0.826921 4.46034,2.754336 0,1.456766 0.17613,1.466358 1.74999,0.0953 0.96251,-0.838474 2.36455,-1.303371 3.11566,-1.033102 0.75111,0.270268 1.71595,-0.07539 2.14407,-0.768123 0.5863,-0.948651 1.35912,-0.71852 3.13119,0.932402 l 2.35274,2.191922 1.75088,-2.162175 c 1.06665,-1.317343 2.37181,-1.923849 3.34026,-1.552226 1.35152,0.518614 1.20116,1.071548 -1.00434,3.69256 -1.42658,1.695436 -2.32794,3.512813 -2.003,4.038616 0.69613,1.126281 4.58511,0.0944 5.69156,-1.51013 0.53006,-0.76873 1.18567,-0.571509 2.11027,0.634781 0.73763,0.9625 1.85412,1.75 2.481,1.75 0.62684,0 1.13973,0.45 1.13973,1 0,1.39259 3.34671,1.253137 4.79998,-0.2 0.93331,-0.933333 1.46668,-0.933333 2.39998,0 1.61288,1.612832 2.80005,1.514207 2.80005,-0.232612 0,-1.720568 3.07658,-2.858992 5.35921,-1.983074 2.54314,0.97591 1.94984,-1.522859 -0.60923,-2.565477 l -2.25001,-0.916715 2.23874,-0.664751 c 1.23129,-0.365613 2.00439,-1.043937 1.71808,-1.507387 -0.28653,-0.46345 -1.10944,-0.61681 -1.82861,-0.340801 -0.71935,0.276009 -1.88497,-0.193644 -2.59047,-1.043674 -1.11696,-1.345962 -0.81177,-1.545505 2.36454,-1.545505 2.9702,0 3.82365,0.464046 4.59769,2.5 0.52278,1.375 1.39752,2.5 1.94386,2.5 0.54635,0 0.71904,-0.714947 0.38379,-1.58877 -0.49865,-1.299236 0.0402,-1.532711 2.96067,-1.281155 2.46178,0.21209 4.25876,-0.303786 5.78673,-1.66123 l 2.21593,-1.9688449 -0.5068,2.7499999 c -0.58278,3.161697 -0.0951,3.356235 2.99331,1.193296 2.06894,-1.449196 2.22256,-1.422054 2.22256,0.393011 0,2.050169 1.81794,3.163693 5.16512,3.163693 1.1704,0 1.81794,0.519077 1.55936,1.25 -0.25527,0.721742 -1.76962,1.14274 -3.58329,0.996194 -1.7277,-0.139593 -3.14119,0.197907 -3.14119,0.75 0,0.552093 0.89986,1.003806 1.99998,1.003806 1.11111,0 2.00001,0.666667 2.00001,1.5 0,1.827117 1.15162,1.925835 2.91628,0.25 1.0783,-1.023946 1.23505,-0.654296 0.86682,2.044028 -0.24733,1.811716 -0.0944,3.513627 0.33996,3.782025 0.43426,0.268399 0.549,1.115283 0.25462,1.881966 -0.36513,0.951615 0.35771,1.496787 2.27752,1.717975 2.31958,0.26724 2.85167,0.84657 3.03651,3.30669 0.12339,1.640476 0.91813,3.490086 1.76627,4.110243 0.84811,0.620157 1.54199,1.640449 1.54199,2.267316 0,1.585766 1.0295,1.423057 3.15251,-0.498255 1.36111,-1.231754 2.14304,-1.361665 3.15255,-0.523794 0.91312,0.757818 1.66906,0.787758 2.36323,0.0936 1.24767,-1.247598 10.52382,2.144375 11.17056,4.08467 0.28773,0.863284 -0.22954,1.114602 -1.57191,0.763578 -1.84782,-0.483205 -1.92169,-0.26527 -0.96611,2.848358 0.67438,2.197566 1.6619,3.3716 2.83567,3.3716 1.18993,0 1.60541,0.508877 1.22517,1.5 -0.36448,0.949843 0.0136,1.5 1.03134,1.5 0.8917,0 1.60703,0.816122 1.60703,1.833333 0,2.54019 -1.06611,3.356664 -2.65798,2.035546 -0.90418,-0.75047 -1.34191,-0.769621 -1.34191,-0.05871 0,0.580281 0.89086,1.337804 1.9798,1.683385 1.08869,0.34558 1.9354,0.938405 1.88148,1.317387 -0.31228,2.193011 0.52005,2.707637 3.88883,2.40476 3.26622,-0.293657 3.90882,0.01398 4.9818,2.384722 1.05787,2.337049 0.9472,3.182734 -0.78254,5.981546 -1.30091,2.104865 -1.64302,3.489339 -0.96574,3.907951 0.57699,0.356553 0.77661,1.089035 0.44355,1.627738 -0.38086,0.616431 -1.12821,0.545437 -2.01622,-0.191543 -1.11958,-0.929272 -1.41096,-0.823104 -1.41096,0.5143 0,1.156229 0.67715,1.587086 2.15705,1.372444 1.18634,-0.172072 2.34886,0.249642 2.58332,0.937142 0.23441,0.6875 -0.0916,1.25 -0.72441,1.25 -0.69562,0 -0.89972,0.790939 -0.51599,2 0.50288,1.584375 0.17974,2 -1.55504,2 -1.70358,0 -1.94589,0.293944 -1.0911,1.323794 0.80453,0.969481 0.77039,1.657544 -0.12764,2.570762 -0.97626,0.992932 -0.66594,1.108606 1.52381,0.567799 1.7545,-0.433304 2.75,-0.277916 2.75,0.429237 0,0.609624 -0.6484,1.108408 -1.44094,1.108408 -0.79256,0 -1.72596,0.461149 -2.07437,1.024777 -0.34829,0.563627 -0.0938,0.901127 0.56598,0.75 2.19942,-0.503908 2.15019,2.215352 -0.0541,3.03106 -1.94914,0.721006 -2.0089,0.938432 -0.58383,2.121203 2.03433,1.688345 2.1121,4.488065 0.10319,3.717195 -0.88459,-0.33946 -1.92974,0.26185 -2.5858,1.48764 -0.96938,1.81132 -0.86172,1.9814 0.90056,1.42208 2.54081,-0.80642 3.76995,1.01092 1.53119,2.26383 -1.50799,0.84385 -1.45065,1.06398 0.55647,2.13815 1.41695,0.75825 2.01928,1.76597 1.64267,2.7475 -0.32724,0.85253 -0.087,2.16269 0.53506,2.91148 0.86555,1.04295 0.75275,1.50617 -0.48279,1.98024 -2.02871,0.77849 -2.0953,3.00564 -0.11266,3.76647 0.82514,0.31658 1.50011,1.03972 1.50011,1.60699 0,0.56726 -0.67497,1.03138 -1.50011,1.03138 -0.82492,0 -1.49992,-0.45 -1.49992,-1 0,-0.55 -0.67504,-1 -1.50004,-1 -0.8333,0 -1.50002,0.88889 -1.50002,2 0,1.1 -0.56246,1.99311 -1.24998,1.98469 -2.26124,-0.0277 -3.90925,-1.66557 -3.57673,-3.55492 0.1936,-1.10046 -0.34196,-1.99526 -1.31467,-2.19592 -1.40108,-0.28909 -1.57035,0.41791 -1.15605,4.83081 0.52486,5.59114 -1.03629,6.24523 -2.20509,0.92387 -0.45082,-2.0528 -1.25771,-2.98853 -2.57694,-2.98853 -2.14334,0 -2.61016,1.58705 -0.67051,2.27976 0.68747,0.24554 0.92346,0.79716 0.52413,1.22584 -0.3992,0.42867 -1.40432,0.21637 -2.23342,-0.47179 -1.26087,-1.04644 -1.66994,-0.82429 -2.49946,1.3575 -1.34735,3.5439 -2.42993,3.30158 -1.69374,-0.37914 0.52547,-2.62733 0.2691,-3.07465 -2.12505,-3.70736 -1.49739,-0.39574 -3.2511,-0.61427 -3.89731,-0.48562 -0.64601,0.12864 -1.80346,-0.66395 -2.5722,-1.76132 -1.29403,-1.84764 -1.56282,-1.87939 -3.63321,-0.42921 -2.07141,1.45087 -2.11002,1.658 -0.52502,2.81697 2.07685,1.51866 1.05815,3.55437 -1.77881,3.55437 -1.76969,0 -1.97842,0.43738 -1.456,3.04971 0.70574,3.5288 -0.96126,3.12901 -2.36684,-0.56758 -0.61316,-1.61302 -1.45675,-2.17367 -2.75815,-1.83334 -1.031,0.26964 -2.46086,-0.21603 -3.1772,-1.07927 -1.73288,-2.08788 -3.2167,-1.99397 -2.85163,0.18048 0.21616,1.2872 -0.30107,1.687 -1.95608,1.51179 -1.2375,-0.13102 -2.25005,0.20648 -2.25005,0.75 0,0.54352 -0.45002,0.98821 -0.99996,0.98821 -0.55,0 -1.00011,-0.8449 -1.00011,-1.87756 0,-3.45078 -2.12644,-4.1451 -8.29977,-2.71005 -5.12459,1.19126 -7.38408,0.74629 -4.68388,-0.92247 1.74426,-1.07796 0.095,-2.33125 -2.26735,-1.72263 -2.03398,0.52415 -2.11275,0.41359 -0.82426,-1.15676 1.30926,-1.59574 1.18778,-1.67934 -1.50006,-1.03274 -1.60856,0.38696 -3.12157,0.87473 -3.36234,1.08393 -0.24078,0.20921 -0.63008,3.03888 -0.86507,6.28818 -0.87453,12.09108 4.15137,29.02598 9.81037,33.05548 1.48281,1.05584 4.90026,2.41065 7.59421,3.01068 2.69401,0.60003 7.16211,2.15837 9.92876,3.46298 2.76694,1.30461 7.94196,2.69832 11.50005,3.09714 6.99039,0.78351 13.00304,3.06378 16.96938,6.43549 l 2.49998,2.12521 -2.99992,-0.48613 c -1.64999,-0.26737 -4.80001,-1.02185 -6.99998,-1.67663 -4.59799,-1.36847 -14.00338,-2.65742 -27.20173,-3.72784 -5.06088,-0.41045 -9.76339,-1.30878 -10.45004,-1.99628 -0.68643,-0.6875 -2.09983,-1.25 -3.14053,-1.25 -1.04081,0 -3.03644,-0.9 -4.43486,-2 -2.96009,-2.3284 -4.27293,-2.53399 -4.27293,-0.66916 0,1.21096 1.20267,2.38831 9.00001,8.81055 1.37504,1.13251 5.2,3.42204 8.50001,5.08784 3.30005,1.6658 6.22504,3.35528 6.50006,3.75439 0.2749,0.39912 1.84999,1.44806 3.49988,2.33098 l 3.00006,1.60532 -3.99994,0.004 c -2.20003,0.002 -6.25011,-1.05979 -9.00004,-2.35939 z m 10.90144,-63.1678 c 0.35143,-0.91567 1.25538,-1.35818 2.10702,-1.03139 0.82033,0.3148 1.49155,0.14507 1.49155,-0.37719 0,-0.52226 -1.12499,-1.23192 -2.5,-1.57703 -1.37501,-0.3451 -2.49995,-1.11867 -2.49995,-1.71905 0,-0.70822 -0.43616,-0.65553 -1.24173,0.15005 -0.98876,0.98886 -0.98189,1.40213 0.0337,2.02995 0.70262,0.43428 0.98773,1.53834 0.63467,2.45836 -0.35248,0.91853 -0.19089,1.67005 0.35909,1.67005 0.55,0 1.27699,-0.72169 1.61546,-1.60375 z m 30.01527,-3.39625 c 2.22218,0 3.25001,-0.47436 3.25001,-1.5 0,-0.825 -0.61587,-1.5 -1.36851,-1.5 -1.98619,0 -6.31168,3.03587 -6.21926,4.36501 0.0503,0.72601 0.26068,0.68457 0.58327,-0.11501 0.27742,-0.6875 1.967,-1.25 3.75449,-1.25 z m -42.67543,-2.25 c 1.08699,-1.37783 1.29435,-4.75 0.29207,-4.75 -1.26779,0 -3.03336,2.44453 -3.03336,4.2 0,2.087 1.31978,2.3518 2.74129,0.55 z m 50.75876,-1.25 c 0,-1.00833 -0.56252,-2.02083 -1.25004,-2.25 -0.79163,-0.26389 -1.24993,0.56111 -1.24993,2.25 0,1.68889 0.4583,2.51389 1.24993,2.25 0.68752,-0.22917 1.25004,-1.24167 1.25004,-2.25 z m 7.40029,-0.25 c -0.15399,-4.24936 -1.37751,-7.90494 -2.2003,-6.57382 -0.39278,0.6358 -0.27372,2.31484 0.26477,3.73122 0.53851,1.41638 0.71853,3.25414 0.40023,4.08392 -0.3184,0.82977 -0.0809,1.50868 0.52802,1.50868 0.60885,0 1.06206,-1.2375 1.00728,-2.75 z m -65.90048,-0.25 c 0,-0.55 -0.9264,-1 -2.05885,-1 -1.1325,0 -1.78092,0.45 -1.44095,1 0.33983,0.55 1.26644,1 2.05892,1 0.79239,0 1.44088,-0.45 1.44088,-1 z m 13.20017,-0.2 c -0.93332,-0.93333 -1.46672,-0.93333 -2.40004,0 -0.9333,0.93333 -0.66665,1.2 1.19999,1.2 1.86664,0 2.1334,-0.26667 1.20005,-1.2 z m -95.20009,-0.8 c 0,-0.55 -0.45,-1 -1,-1 -0.55,0 -1.00001,0.45 -1.00001,1 0,0.55 0.45001,1 1.00001,1 0.55,0 1,-0.45 1,-1 z m 115.12929,-2.27083 c -1.66491,-1.66487 -2.60782,-0.0108 -1.05824,1.85632 0.93715,1.12923 1.4792,1.26409 1.75494,0.43666 0.21946,-0.65843 -0.0941,-1.69028 -0.6967,-2.29298 z m 19.43823,1.02083 c 0.38615,-1.2375 1.2002,-2.56876 1.809,-2.95836 0.79329,-0.50765 0.75502,-1.06014 -0.13478,-1.94999 -0.6829,-0.6829 -1.24164,-1.77418 -1.24164,-2.42506 0,-1.41505 4.81708,-2.5216 5.58284,-1.28247 0.29436,0.47624 1.35759,0.86589 2.36261,0.86589 1.26267,0 1.96253,-0.91954 2.26418,-2.97465 0.40231,-2.74154 0.24153,-2.92573 -2.05095,-2.35033 -2.1526,0.54026 -2.38068,0.36853 -1.69406,-1.275346 0.43641,-1.04483 0.87738,-2.694206 0.97997,-3.665293 0.30167,-2.853788 2.31916,-4.373877 3.8054,-2.867066 1.00149,1.015349 0.9052,1.522122 -0.48444,2.548876 -1.60057,1.182582 -1.43605,2.583803 0.30331,2.583803 1.3378,0 3.05442,-6.305777 1.90928,-7.01353 -0.57528,-0.355503 -0.75526,-1.403623 -0.40027,-2.329155 0.67015,-1.74595 -1.08572,-4.657315 -2.80871,-4.657315 -0.56082,0 -0.70648,1.113865 -0.33761,2.583178 0.51727,2.061654 0.23646,2.690878 -1.39164,3.116631 -1.12193,0.2934 -2.03994,1.15597 -2.03994,1.916822 0,0.760853 -0.44996,1.383369 -0.99992,1.383369 -0.55005,0 -1.00006,1.26 -1.00006,2.8 0,4.567626 -3.31626,6.922436 -4.32377,3.07012 -0.38562,-1.474728 -1.06182,-1.936129 -2.19836,-1.500001 -0.90276,0.346435 -2.95468,0.629881 -4.55965,0.629881 -1.92732,0 -2.91818,0.50934 -2.91818,1.5 0,0.884346 0.9234,1.506276 2.24999,1.515306 1.23743,0.008 2.8732,0.41006 3.63505,0.89253 2.02911,1.28506 -2.38143,3.43274 -5.75721,2.80342 -1.4453,-0.26943 -3.52781,-0.12132 -4.62785,0.32915 -1.89637,0.77659 -1.79483,1.04775 0.49994,1.3346 0.55007,0.0687 1.00006,0.4625 1.00006,0.875 0,0.4125 0,1.2 0,1.75 0,0.55 -0.90005,1 -2.00003,1 -2.03991,0 -2.70815,1.44428 -1.12189,2.42466 1.2561,0.77628 9.10383,-3.67959 9.11368,-5.17466 0.004,-0.6875 0.90822,-1.25 2.00818,-1.25 1.66667,0 2.00004,0.66667 2.00004,4 0,3.37154 -0.32349,3.99999 -2.05904,3.99999 -1.13242,0 -1.78088,0.45 -1.44097,1 1.20511,1.94989 5.33433,1.0992 6.06744,-1.25 z m -128.02782,-3.32887 c -0.12493,-3.69973 0.28841,-4.92735 2.15284,-6.39391 2.34125,-1.84163 3.08284,-4.02722 1.36648,-4.02722 -0.51754,0 -1.22648,0.46193 -1.5754,1.02652 -0.34894,0.56459 -1.36193,0.9021 -2.25107,0.75001 -1.30619,-0.22343 -1.6072,0.6357 -1.56745,4.47348 0.0271,2.6125 -0.40625,4.74999 -0.96293,4.74999 -0.55668,0 -0.19766,0.9 0.79783,2 0.99549,1.1 1.89645,2 2.00214,2 0.10569,0 0.12259,-2.06049 0.0376,-4.57887 z m 28.46032,3.57887 c 0,-0.55 -0.675,-1 -1.50001,-1 -0.82499,0 -1.49999,0.45 -1.49999,1 0,0.55 0.675,1 1.49999,1 0.82501,0 1.50001,-0.45 1.50001,-1 z m -0.38759,-4.5312 c 1.93406,-2.95176 0.88382,-4.86792 -1.14634,-2.0915 -0.93663,1.28091 -2.17689,1.71998 -3.91824,1.3871 -2.77083,-0.52968 -3.22588,0.15757 -1.34783,2.0356 1.94258,1.94259 4.63334,1.38399 6.41241,-1.3312 z m 6.22175,-1.4085 c 0.22703,-1.55126 -0.0935,-2.14211 -1.00001,-1.84334 -0.73378,0.24184 -1.48451,1.46708 -1.6683,2.72276 -0.22704,1.55125 0.0935,2.1421 1.00001,1.84333 0.73377,-0.24184 1.48451,-1.46707 1.6683,-2.72275 z m 4.16585,1.93971 c 0,-0.55 -0.70156,-1 -1.55903,-1 -0.85746,0 -1.28089,0.45 -0.94097,1 0.33992,0.54999 1.04147,0.99999 1.55901,0.99999 0.51754,0 0.94099,-0.45 0.94099,-0.99999 z m 61.2698,-2.56064 c -1.32998,-2.78892 -2.13924,-3.44208 -3.73392,-3.01365 -1.11981,0.30084 -2.82332,0.55313 -3.78583,0.56064 -1.03966,0.008 -1.75009,0.7748 -1.75009,1.88865 0,1.37179 0.72696,1.875 2.7084,1.875 1.48965,0 2.87709,0.50625 3.08339,1.125 0.20614,0.61874 1.45518,1.12499 2.77543,1.12499 h 2.4005 z m 35.73032,1.56064 c 0,-0.55 -0.45011,-1 -1.00008,-1 -0.54996,0 -0.99992,0.45 -0.99992,1 0,0.55 0.44996,1 0.99992,1 0.54997,0 1.00008,-0.45 1.00008,-1 z m -116.27096,-0.60417 c -0.3323,-0.33229 -1.1948,-0.36781 -1.91667,-0.0789 -0.79773,0.31922 -0.56079,0.55618 0.60416,0.60416 1.05416,0.0434 1.6448,-0.19292 1.31251,-0.52522 z m 30.0889,-1.89583 c -1.04176,-2.28634 -2.81804,-3.43907 -2.81804,-1.82874 0,0.6901 3.05428,4.32874 3.63357,4.32874 0.17794,0 -0.18907,-1.125 -0.81553,-2.5 z m -41.42508,-0.0818 c 0.85119,-2.21811 0.78615,-2.4182 -0.78601,-2.4182 -1.50844,0 -2.84458,2.42909 -1.87143,3.40223 1.02843,1.02842 2.02711,0.65862 2.65744,-0.98402 z m 102.45317,-0.9182 c -0.14277,-0.55 -1.85406,-1.55572 -3.80287,-2.23494 -4.29596,-1.49729 -4.04328,-1.47873 -4.04328,-0.297 0,1.23907 5.08948,4.04828 6.80291,3.75497 0.71655,-0.12267 1.18597,-0.67303 1.04324,-1.22303 z m -124.451,-2.91254 c -0.32081,-0.83601 0.20219,-1.58808 1.28139,-1.84261 1.48719,-0.35078 1.30434,-0.64349 -0.99167,-1.587466 -1.54831,-0.63656 -3.79831,-1.14308 -5.00001,-1.12559 -1.90701,0.0278 -1.98623,0.18675 -0.62293,1.25 0.8591,0.670006 1.85746,2.005696 2.21862,2.968206 0.36115,0.9625 1.33164,1.75 2.15664,1.75 0.88122,0 1.2764,-0.58271 0.95796,-1.41254 z m 8.60482,-0.52844 c 0,-1.06755 0.45,-2.21911 1,-2.559026 1.95691,-1.20944 0.95494,-2.5 -1.94098,-2.5 -3.45907,0 -5.04479,1.86883 -2.69943,3.181366 0.90222,0.5049 1.64041,1.57065 1.64041,2.36833 0,0.79767 0.44999,1.45031 1,1.45031 0.55,0 1,-0.87344 1,-1.94098 z m 14.60418,-2.788196 c -1.01653,-1.01651 -1.85526,0.513886 -1.02122,1.863376 0.63003,1.01943 0.86558,1.02022 1.20429,0.004 0.23161,-0.69479 0.14922,-1.535116 -0.18307,-1.867416 z m 83.86889,-1.22716 c 0.32513,-0.525975 1.13909,-0.758959 1.80904,-0.517738 0.66989,0.241222 2.29346,-0.390407 3.60803,-1.403619 l 2.39006,-1.842203 -2.14003,-2.140055 c -2.17364,-2.173602 -7.14007,-2.966597 -7.14007,-1.140055 0,0.55 0.67492,1 1.49997,1 0.82495,0 1.50006,0.401855 1.50006,0.893011 0,1.187003 -3.06145,2.468628 -5.25014,2.197818 -1.92301,-0.237971 -2.03772,-0.0045 -1.14292,2.327384 0.66456,1.731867 3.92339,2.150737 4.866,0.625457 z m 10.02698,-1.04367 c 0.33993,-0.55 0.16812,-1 -0.38195,-1 -0.55004,0 -1.27804,0.45 -1.618,1 -0.33992,0.55 -0.16804,1 0.3819,1 0.5501,0 1.27819,-0.45 1.61805,-1 z m -19.49994,-1 c 0,-0.55 -0.19845,-1 -0.44098,-1 -0.24256,0 -0.71926,0.45 -1.05911,1 -0.33987,0.55 -0.14138,1 0.44104,1 0.58249,0 1.05905,-0.45 1.05905,-1 z m 28.18709,-1.77465 c -0.25568,-1.818644 0.17076,-2.22535 2.33338,-2.22535 3.17826,0 2.88927,-2.161869 -0.35528,-2.657007 -1.30682,-0.199444 -2.46701,0.279817 -2.80425,1.15841 -0.74715,1.947233 -2.77323,1.911688 -4.42422,-0.07762 -1.07877,-1.299877 -1.0748,-1.720416 0.0226,-2.398723 2.06491,-1.276201 -1.97442,-1.855052 -4.70943,-0.674887 -2.68185,1.157183 -2.94586,3.456856 -0.50005,4.355799 0.96252,0.353762 2.12379,1.264592 2.58072,2.024066 0.60604,1.007395 1.18157,1.089705 2.12788,0.304336 0.98121,-0.814289 1.4313,-0.563015 1.84838,1.031522 0.77383,2.959124 4.30677,2.193794 3.88018,-0.840548 z m -123.68721,-0.22535 c -0.33992,-0.55 -1.04148,-1 -1.55901,-1 -0.51754,0 -0.94099,0.45 -0.94099,1 0,0.55 0.70156,1 1.55902,1 0.85746,0 1.28091,-0.45 0.94098,-1 z m 65.48471,-2.75 c 0.007,-0.6875 -0.87499,-1.25 -1.96328,-1.25 -1.75339,0 -1.84745,0.287636 -0.82651,2.528378 0.83574,1.834146 1.37476,2.177366 1.96319,1.25 0.44627,-0.703108 0.81823,-1.840878 0.8266,-2.528378 z m 70.01535,1.75 c -1.21178,-2.264369 -3.03218,-2.567766 -4.79996,-0.8 -2.01599,2.01597 -1.36207,2.8 2.33517,2.8 3.22529,0 3.44137,-0.175311 2.46479,-2 z m 6.00006,0.468615 c 0,-1.639778 -2.66876,-3.133224 -3.72013,-2.081821 -0.34864,0.348629 0.23324,1.28991 1.29316,2.091735 2.42261,1.83286 2.42697,1.832842 2.42697,-0.0099 z m -96.58628,-0.329135 c 0.81711,-1.322109 -0.31974,-1.97684 -2.46047,-1.417028 -1.06196,0.277711 -1.68435,0.903768 -1.38308,1.391238 0.70009,1.132757 3.14925,1.149191 3.84355,0.02579 z m -13.80141,-3.670688 c 2.08709,-3.185291 1.45589,-3.849305 -2.22372,-2.33938 -2.30958,0.947731 -2.52721,1.270804 -1.08559,1.61153 1.43218,0.338493 1.56128,0.717543 0.62756,1.842609 -0.81621,0.983489 -0.8395,1.416449 -0.0762,1.416449 0.60467,0 1.84572,-1.139044 2.75792,-2.531208 z m -21.81859,-0.218792 c -0.29587,-1.762097 -1.65488,-3.206329 -3.04383,-3.234687 -0.92874,-0.01896 -0.99484,3.406508 -0.0833,4.31802 1.33841,1.338415 3.41311,0.619684 3.12716,-1.083333 z m 27.20619,1.309017 c 0,-0.242541 -0.45001,-0.719098 -1.00001,-1.059017 -0.54999,-0.339919 -0.99999,-0.141476 -0.99999,0.440983 0,0.582459 0.45,1.059017 0.99999,1.059017 0.55,0 1.00001,-0.198442 1.00001,-0.440983 z m 42.43399,-2.247676 c 0.42211,-1.099663 0.13769,-1.360921 -1.0044,-0.922682 -0.87625,0.336238 -1.78135,0.611341 -2.01135,0.611341 -0.22999,0 -0.41824,0.660877 -0.41824,1.468615 0,1.837764 2.62409,0.953448 3.43399,-1.157274 z m -63.59601,-1.212313 c 0.26651,-1.877053 -0.0152,-2.245019 -1.33179,-1.739784 -0.91838,0.352416 -1.85798,0.640756 -2.088,0.640756 -0.23,0 -0.41821,0.932996 -0.41821,2.073324 0,2.945325 3.40417,2.081157 3.838,-0.974296 z m 84.16204,2.383782 c 0,-1.538998 -1.49163,-3.48281 -2.67267,-3.48281 -2.08345,0 -5.46933,1.961381 -4.91991,2.850154 0.43937,0.71087 7.59258,1.306918 7.59258,0.632656 z m -96.00005,-2.423793 c 0,-2.652634 -1.85976,-3.603542 -2.68412,-1.372399 -0.3685,0.99736 -1.15282,2.143991 -1.74293,2.548069 -0.59013,0.404078 0.16455,0.741578 1.67705,0.75 2.06073,0.01148 2.75,-0.471188 2.75,-1.92567 z m 20.00002,0.92567 c 1.33333,-0.875277 1.33333,-1.094097 0,-1.969374 -2.24832,-1.475927 -3.00001,-1.229203 -3.00001,0.984687 0,2.21389 0.75169,2.460614 3.00001,0.984687 z m 112.10386,-1.280888 c -1.28346,-1.283486 -2.58504,-0.291503 -1.63492,1.245982 0.36815,0.595563 1.12749,0.799712 1.68736,0.453663 0.68301,-0.422119 0.66576,-0.981465 -0.0518,-1.699645 z m -137.57683,-0.78901 c 0.3489,-1.099298 -0.23184,-2.619582 -1.4759,-3.863637 -2.64907,-2.649062 -2.87664,-2.589095 -2.26749,0.597473 0.31376,1.641357 0.12171,2.410922 -0.50502,2.023581 -0.55624,-0.343774 -1.7607,0.202981 -2.67657,1.215012 -1.59066,1.757656 -1.48577,1.840055 2.34224,1.840055 2.99102,0 4.15339,-0.459721 4.58274,-1.812484 z m 148.47303,0.526194 c 0,-0.857459 -0.44996,-1.280902 -0.99992,-0.940983 -0.55005,0.339919 -1.00006,1.041476 -1.00006,1.559017 0,0.517541 0.45001,0.940983 1.00006,0.940983 0.54996,0 0.99992,-0.701558 0.99992,-1.559017 z m -41.99996,-0.444115 c 0,-0.483359 -0.40944,-1.131852 -0.90978,-1.441095 -1.14154,-0.70554 -4.22595,0.41554 -3.66063,1.330479 0.63201,1.022419 4.57041,1.117741 4.57041,0.110616 z m -55.00008,-3.38846 c 0,-1.751923 -0.70735,-2.569126 -2.64464,-3.055355 -3.25042,-0.815804 -5.50972,0.945796 -2.45602,1.914998 1.15535,0.366698 2.10065,1.3114 2.10065,2.099337 0,0.787936 0.675,1.432612 1.50001,1.432612 0.91519,0 1.5,-0.932399 1.5,-2.391592 z m 41.00007,0.891592 c 0,-0.825 -0.42352,-1.5 -0.94098,-1.5 -1.26106,0 -2.16413,1.561589 -1.36527,2.36052 1.12629,1.126184 2.30625,0.68589 2.30625,-0.86052 z m 55.00096,-0.150368 c 2.9325,-1.462901 3.12034,-1.787798 1.65367,-2.860242 -0.91007,-0.665431 -1.65458,-1.670282 -1.65458,-2.233001 0,-1.424554 -4.28812,-2.40843 -5.05914,-1.160799 -0.36478,0.590281 -1.8191,0.722099 -3.4502,0.312724 -2.40497,-0.603613 -2.72191,-0.453076 -2.1552,1.023797 0.36548,0.952305 0.66444,2.180414 0.66444,2.729132 0,0.595398 1.2498,0.723172 3.09961,0.316893 2.81861,-0.619083 3.03912,-0.490354 2.43261,1.420545 -0.80399,2.532916 0.11043,2.625186 4.46879,0.450951 z m -72.25113,-1.933101 c -0.95296,-0.952958 -2.8635,0.590599 -2.15332,1.7397 0.42216,0.683003 0.98143,0.665748 1.69967,-0.05243 0.58873,-0.588756 0.79287,-1.348027 0.45365,-1.687268 z m -49.74992,0.583469 c 0,-0.55 -1.15156,-1 -2.55902,-1 -1.45137,0 -2.2915,0.432842 -1.94099,1 0.33992,0.55 1.49149,1 2.55903,1 1.06754,0 1.94098,-0.45 1.94098,-1 z m 7.55542,-2.25 c -0.14884,-1.7875 -0.33469,-3.5875 -0.41301,-4 -0.0783,-0.4125 -1.32251,-0.75 -2.76485,-0.75 -2.20751,0 -2.42718,0.235287 -1.38834,1.487014 0.70783,0.852871 0.96514,2.558687 0.6034,4 -0.54414,2.16802 -0.29688,2.512986 1.80134,2.512986 2.13268,0 2.39873,-0.400038 2.16146,-3.25 z m 32.29046,0.239784 c 0.19019,-1.369381 0.82651,-3.074869 1.41407,-3.789972 1.91158,-2.326513 -1.38655,-4.454291 -5.66114,-3.652363 -4.16272,0.780926 -4.37628,3.1144 -0.24391,2.664702 2.089,-0.22733 2.64511,0.1406 2.64511,1.75 0,1.144755 -0.65738,2.037849 -1.49998,2.037849 -0.82503,0 -1.49999,0.6 -1.49999,1.333333 0,3.627592 4.33691,3.320119 4.84584,-0.343549 z m 47.9515,0.01022 c 1.49122,0 1.96544,0.454657 1.56427,1.5 -0.36445,0.949843 0.014,1.5 1.03126,1.5 2.04622,0 2.033,-0.871975 -0.0474,-3.171259 -1.9646,-2.170888 -4.18355,-2.31269 -7.69361,-0.49166 -1.94131,1.00716 -2.29362,1.620659 -1.42797,2.486346 0.8657,0.865688 1.55449,0.782514 2.79171,-0.337081 0.90321,-0.81749 2.6053,-1.486346 3.78213,-1.486346 z m -96.47529,-0.39698 c 0.34318,-0.894327 -0.30603,-1.557956 -1.8043,-1.844368 -2.05922,-0.393646 -2.20201,-0.225833 -1.18852,1.39698 1.3764,2.203967 2.26763,2.337196 2.99282,0.447388 z m 64.25705,-0.03926 c 0.89774,-0.897849 1.05849,-1.669697 0.42859,-2.059017 -1.36098,-0.841139 -3.00766,0.283565 -3.00766,2.054274 0,1.824389 0.75804,1.825782 2.57907,0.0047 z m -25.28938,-1.56376 c -0.28765,-1.1 -0.92052,-2 -1.40637,-2 -1.04548,0 -1.08194,0.318997 -0.27638,2.418213 0.88109,2.296076 2.30031,1.943356 1.68275,-0.418213 z m 67.14522,1.024751 c 1.4108,-0.536387 2.56503,-1.661387 2.56503,-2.5 0,-1.726804 -1.56152,-2.043119 -2.51002,-0.508439 -0.34546,0.558971 -1.06854,0.744096 -1.60697,0.411387 -1.64077,-1.014086 -3.89013,0.39002 -3.2591,2.034447 0.69067,1.799889 1.35306,1.877344 4.81106,0.562605 z m 32.68538,-3.382056 c 0.77741,-2.907045 -1.11214,-4.642695 -5.05452,-4.642695 -1.13616,0 -2.06578,-0.45 -2.06578,-1 0,-1.422356 -1.30929,-1.238421 -3.55887,0.5 -1.88536,1.456927 -1.88783,1.541233 -0.0882,2.935907 1.34219,1.039793 2.53258,1.177725 4.3151,0.5 3.361,-1.277824 4.33139,-1.177566 4.33139,0.447458 0,0.760852 -0.9018,1.619209 -2.00408,1.907459 -1.29741,0.339283 -1.79718,1.06349 -1.41715,2.053755 0.89404,2.329924 4.69093,0.478699 5.54153,-2.701888 z m -148.62037,1.357301 c 0.33992,-0.55 0.14148,-1 -0.44098,-1 -0.58247,0 -1.05903,0.45 -1.05903,1 0,0.55 0.19845,1 0.44099,1 0.24254,0 0.71909,-0.45 1.05902,-1 z m 35.25048,-0.75 c 0.24154,-0.725405 -0.43335,-1.25 -1.60812,-1.25 -2.1869,0 -3.5031,1.30592 -2.41393,2.395089 1.00618,1.00617 3.54659,0.282907 4.02205,-1.145089 z m 36.70689,-1.319098 c -0.94039,-1.521544 -2.44303,-1.056767 -1.82111,0.563354 0.31533,0.821841 0.98353,1.240747 1.48482,0.930902 0.50143,-0.309845 0.65276,-0.98226 0.33629,-1.494256 z m -62.19557,-1.72189 c -0.26487,-2.456178 1.19973,-2.960696 2.43851,-0.840006 0.43984,0.752953 1.81219,1.683278 3.0497,2.067388 1.69881,0.5273 2.25,0.299022 2.25,-0.931865 0,-0.99889 0.67772,-1.515429 1.75,-1.333773 0.9625,0.163059 1.75,-0.146154 1.75,-0.687142 0,-0.540988 -1.575,-0.992037 -3.5,-1.002333 -3.88915,-0.0208 -6.32695,-1.143244 -5.47541,-2.521062 0.30645,-0.495872 -0.5506,-1.179628 -1.90461,-1.519459 -5.2342,-1.313701 -8.65644,1.274388 -4.39819,3.326162 1.25302,0.603745 1.68612,1.128174 0.96246,1.165398 -0.72366,0.03722 -2.15885,-0.383537 -3.18932,-0.935024 -2.41773,-1.293932 -3.66774,0.487109 -1.86575,2.658371 3.08346,3.715351 8.51342,4.084807 8.13261,0.553345 z m 87.07374,-3.24444 c 3.17049,-1.870617 5.35462,-5.616661 4.03515,-6.920902 -0.30239,-0.299018 -1.52211,0.624138 -2.71038,2.051459 -1.18805,1.427321 -2.94784,2.875698 -3.91019,3.218615 -0.96254,0.342918 -1.75005,1.31261 -1.75005,2.154871 0,1.958991 0.20043,1.935688 4.33547,-0.504043 z m -6.81958,-1.214572 c 0.41214,-1.2375 0.80213,-3.366502 0.86671,-4.731116 0.0835,-1.764925 1.12767,-3.002319 3.61737,-4.286726 l 3.50005,-1.805608 -3.99994,0.590043 c -6.08464,0.897543 -7.41159,1.449546 -8.53627,3.551132 -0.86457,1.615492 -0.70051,1.932275 1.001,1.932275 2.40927,0 2.62854,1.262672 0.52289,3.010234 -1.15034,0.954667 -1.24071,1.582438 -0.37767,2.622445 1.61253,1.942834 2.54563,1.701004 3.40586,-0.882679 z m -10.51584,0.410515 c 0,-1.176722 -4.95256,-3.307909 -6.07501,-2.614202 -1.74855,1.080565 -0.9211,2.321435 1.82485,2.737433 1.51262,0.229124 3.08759,0.484014 3.50009,0.566422 0.41254,0.08241 0.75007,-0.227936 0.75007,-0.689653 z m 32.74987,-1.104077 c 3.04406,-2.539342 2.93101,-5.056438 -0.22684,-5.056438 -2.66579,0 -6.17411,4.137554 -5.05024,5.956024 0.94534,1.529619 2.72997,1.225406 5.27708,-0.899586 z m 36.84522,0.0487 c -2.03962,-2.253835 -6.59506,-3.381886 -6.59506,-1.633133 0,1.990415 1.23279,2.579624 2.75471,1.316557 1.14295,-0.948577 1.63469,-0.843992 2.39174,0.508676 0.52401,0.936519 1.45023,1.702762 2.05819,1.702762 0.60784,0 0.33361,-0.852688 -0.60958,-1.894862 z M 185.72427,67.913038 c 1.10574,-0.839383 1.75,-2.675407 1.75,-4.987249 0,-3.484696 -0.13087,-3.627414 -2.75001,-2.999081 -3.68603,0.884284 -4.05521,1.348254 -1.99166,2.503069 2.65457,1.485575 2.13025,3.189653 -0.75833,2.464663 -2.95614,-0.741943 -3.11169,-0.259287 -0.75001,2.327311 2.12941,2.332199 2.3032,2.358898 4.50001,0.691287 z m 33.1758,-1.275171 c 0.97302,-2.535556 -1.04386,-3.914924 -2.29796,-1.571625 -1.01103,1.889089 -0.62267,3.238842 0.93181,3.238842 0.39955,0 1.0143,-0.750248 1.36615,-1.667217 z m 60.39069,-1.591334 c 0.21944,-1.901101 0.89105,-2.741449 2.19096,-2.741449 2.4175,0 3.6464,1.977898 1.89956,3.05743 -0.74186,0.458603 -1.0545,1.128353 -0.69463,1.488333 0.36007,0.359979 1.24708,0.27367 1.97119,-0.191799 0.72408,-0.465469 2.65618,-0.84803 4.29362,-0.850136 2.03471,-0.0026 3.0866,-0.557731 3.32331,-1.753828 0.21204,-1.071856 -0.26348,-1.75 -1.22714,-1.75 -0.86529,0 -1.57333,-0.675 -1.57333,-1.5 0,-0.825 0.18828,-1.5 0.4182,-1.5 0.23004,0 1.13011,-0.273145 2.00007,-0.606989 1.05229,-0.403809 1.58178,-0.04932 1.58178,1.059017 0,0.916303 0.46968,1.375708 1.04381,1.020899 0.57396,-0.354809 1.65252,-0.139925 2.39644,0.477521 1.08033,0.896539 1.32317,0.61193 1.20623,-1.413204 -0.11327,-1.960476 -0.68476,-2.535992 -2.51892,-2.536538 -2.08488,-6.2e-4 -2.20755,-0.199377 -1.01218,-1.639731 0.74811,-0.901464 1.22074,-2.813964 1.05018,-4.25 -0.62079,-5.227671 -6.37819,-6.817613 -9.44133,-2.607263 -1.46995,2.020436 -1.5626,2.782292 -0.53788,4.423097 0.68083,1.090229 0.94742,2.27276 0.59228,2.627848 -1.06853,1.068616 -2.7786,-0.539898 -2.7786,-2.613674 0,-1.076331 -0.68224,-1.940983 -1.53144,-1.940983 -2.08086,0 -3.09384,2.995537 -1.37286,4.059284 1.12926,0.697807 1.14865,1.096341 0.1043,2.140716 -1.04438,1.044375 -1.43181,1.043056 -2.08086,-0.0071 -0.83988,-1.35906 -3.71429,-1.115861 -8.42931,0.71323 -1.54562,0.599561 -2.5316,1.540954 -2.19101,2.091984 0.89667,1.451014 2.58922,1.232146 4.60943,-0.596088 2.65507,-2.402802 3.89561,-0.999894 2.75826,3.119254 -0.53241,1.928068 -0.67823,3.974447 -0.32402,4.547511 1.20837,1.955191 3.95203,0.461122 4.27389,-2.327355 z m -102.48663,-0.15869 c 0.63222,-1.64753 -1.306,-2.582759 -5.35265,-2.582759 -3.69881,0 -4.76488,1.752552 -1.79147,2.945072 3.46165,1.388334 6.53209,1.232616 7.14412,-0.362313 z m -13.32988,-0.582759 c 0,-0.55 -0.44999,-1 -1,-1 -0.55,0 -1,0.45 -1,1 0,0.55 0.45,1 1,1 0.55001,0 1,-0.45 1,-1 z m 91.00005,0 c 0,-0.55 -0.67494,-1 -1.49995,-1 -0.825,0 -1.50006,0.45 -1.50006,1 0,0.55 0.67506,1 1.50006,1 0.82501,0 1.49995,-0.45 1.49995,-1 z m -31.99998,-1 c 0,-0.55 -0.47658,-1 -1.05906,-1 -0.58244,0 -0.78093,0.45 -0.44096,1 0.33988,0.55 0.81647,1 1.05899,1 0.24246,0 0.44103,-0.45 0.44103,-1 z m 42.96372,-0.456195 c 0.66466,-0.800907 0.94329,-1.885299 0.61917,-2.409758 -0.88517,-1.432227 0.43771,-4.134047 2.02413,-4.134047 0.766,0 1.39303,-0.873442 1.39303,-1.940983 0,-2.831565 1.84158,-3.512353 4.06302,-1.501991 1.62942,1.474638 1.93694,1.511841 1.93694,0.234325 0,-1.612218 -4.67962,-6.791351 -6.13637,-6.791351 -0.47499,0 -0.86364,-0.50625 -0.86364,-1.125 0,-0.716667 1.08893,-0.907222 3.00004,-0.525 2.24852,0.449718 3.00004,0.230556 3.00004,-0.875 0,-1.642161 -3.00193,-4.973417 -5.12507,-5.687379 -1.16,-0.390093 -1.15496,-0.728928 0.0325,-2.167381 2.28525,-2.767971 0.11284,-3.788138 -4.9533,-2.326115 -3.3361,0.962773 -4.53452,1.840306 -4.77388,3.495672 -0.39846,2.756125 1.38592,2.889148 2.81944,0.210203 0.58889,-1.1 1.53505,-2 2.10273,-2 0.57716,0 0.75236,0.881754 0.39742,2 -0.45046,1.419321 -0.17968,2 0.93259,2 2.2979,0 1.91191,1.676651 -0.53321,2.316061 -1.17816,0.308089 -1.80645,1.025193 -1.43082,1.632943 0.36829,0.595991 1.09165,0.822758 1.60762,0.503926 0.51584,-0.318832 1.22817,0.236328 1.58285,1.233688 0.35479,0.99736 1.32137,2.600882 2.14794,3.563382 1.34552,1.566653 1.33035,1.75 -0.1435,1.75 -0.90558,0 -2.20851,-0.9 -2.89551,-2 -0.687,-1.1 -2.30329,-2 -3.59182,-2 -2.94595,0 -2.38498,2.372742 0.66702,2.821494 1.20259,0.176822 1.9475,0.708228 1.65541,1.180902 -0.29215,0.472674 -0.074,1.142059 0.48516,1.487523 1.78037,1.100353 1.16265,4.510081 -0.81711,4.510081 -2.54012,0 -3.35657,-1.066142 -2.03544,-2.657991 0.89049,-1.073009 0.49973,-1.342009 -1.94972,-1.342009 -3.43409,0 -5.16161,1.757019 -3.05964,3.111803 1.16996,0.753998 1.1689,1.023049 -0.006,1.78071 -1.09709,0.706913 -0.88909,1.166447 0.99999,2.209805 1.31178,0.72451 2.98711,1.194091 3.72282,1.043512 0.92946,-0.190212 1.13776,0.356219 0.68266,1.790196 -0.75669,2.384053 0.6737,2.739892 2.44338,0.607779 z m -47.78125,-2.473836 c 2.68333,-1.336075 3.8294,-1.150218 7.01958,1.138297 2.75139,1.97378 3.53079,-0.191619 0.85096,-2.364131 -2.07334,-1.680783 -2.26414,-2.276388 -1.24995,-3.900351 1.66238,-2.661926 1.53937,-2.943784 -1.28401,-2.943784 -1.81237,0 -2.65004,0.673727 -3.10839,2.5 -0.7247,2.887233 -1.91699,3.20461 -3.22931,0.859602 -1.13358,-2.0255 -3.18139,-0.93159 -3.18139,1.699415 0,1.067541 -0.50623,1.828483 -1.125,1.690983 -0.61874,-0.1375 -1.31863,0.274708 -1.55535,0.916018 -0.2367,0.641311 0.38209,1.349639 1.37502,1.574064 2.17567,0.49176 2.13129,0.501229 5.48784,-1.170113 z m 15.31347,0.180031 c -1.16462,-2.838085 -1.07943,-4.505284 0.25395,-4.975705 0.68755,-0.242529 1.25013,0.271538 1.25013,1.142372 0,2.04274 1.88209,2.054126 2.66419,0.01612 0.8098,-2.11031 -0.42284,-3.058165 -5.04829,-3.881948 -3.25283,-0.579343 -3.78805,-0.441762 -3.29365,0.846684 0.32476,0.846137 0.0918,1.846532 -0.51739,2.223099 -0.74563,0.460735 -0.55547,1.088595 0.5811,1.919657 0.92884,0.679243 1.61878,1.623053 1.53304,2.097356 -0.31648,1.751226 0.12015,2.362365 1.688,2.362365 1.13734,0 1.3971,-0.511432 0.88892,-1.75 z m -26.52741,0 c -0.088,-2.100059 -9.97237,-6.67078 -9.96588,-4.608408 0.002,0.976473 6.849,5.085256 8.74732,5.249956 0.68749,0.05965 1.23584,-0.229048 1.21856,-0.641548 z m -31.96859,-3.25 c 0,-1.252922 -1.06124,-1.252922 -3.00001,0 -1.21296,0.783874 -1.06944,0.972305 0.75,0.984687 1.23751,0.0084 2.25001,-0.434687 2.25001,-0.984687 z m 5.8125,-1.9375 c 0.25,-0.75 -0.125,-1.125 -0.875,-0.875 -0.72188,0.240625 -1.50938,1.028125 -1.75,1.75 -0.25,0.75 0.125,1.125 0.875,0.875 0.72188,-0.240625 1.50938,-1.028125 1.75,-1.75 z m 21.47338,-3.077362 c -0.40517,-1.5494 -0.15253,-1.871206 1.09361,-1.393011 0.92305,0.354201 1.62053,0.119992 1.62053,-0.544155 0,-0.641303 -0.39901,-0.919403 -0.88669,-0.617999 -0.48768,0.301403 -1.44278,-0.122039 -2.12245,-0.940983 -0.67967,-0.818945 -2.11097,-1.48899 -3.1807,-1.48899 -1.54835,0 -1.80866,0.458803 -1.27659,2.25 1.15509,3.888497 5.74467,6.529993 4.75229,2.735138 z m -24.28588,-0.510138 c 0,-0.894444 1.24044,-1.773087 3,-2.125 3.65377,-0.730755 3.77061,-1.485282 0.46728,-3.017682 -2.16919,-1.006271 -2.47914,-0.937156 -2.24222,0.5 0.20292,1.23084 -0.60035,1.751552 -3.06653,1.987863 -3.23302,0.309788 -3.28479,0.382822 -1.59502,2.25 2.10058,2.32111 3.43649,2.478481 3.43649,0.404819 z m 81.00006,-4.473379 c 0,-0.963002 -3.68742,-1.980873 -4.44211,-1.226192 -0.3068,0.306847 -0.55789,1.618278 -0.55789,2.914291 0,2.283628 0.0775,2.305808 2.50002,0.718323 1.37498,-0.900935 2.49998,-1.983824 2.49998,-2.406422 z m -36.41826,1.998379 c 0.78002,0 1.41825,-0.723145 1.41825,-1.606989 0,-1.07324 -0.5403,-1.399652 -1.62677,-0.982747 -1.66731,0.639815 -4.37327,-0.942597 -4.37327,-2.55746 0,-0.496268 1.14361,-1.3371 2.54134,-1.868515 1.39772,-0.531414 3.31023,-2.317431 4.25005,-3.968926 0.93967,-1.651495 2.2711,-3.005563 2.95866,-3.00904 1.65018,-0.0083 1.57966,0.560908 -0.45406,3.664774 -1.67447,2.555522 -1.66809,2.578242 0.36753,1.306997 3.12824,-1.953618 5.54111,-0.646371 4.39076,2.378907 -1.00173,2.634851 -0.36074,6.642999 1.06237,6.642999 0.48568,0 0.93475,-0.5625 0.99734,-1.25 0.42595,-4.669603 0.88481,-6.879087 1.77295,-8.538661 0.74748,-1.396572 0.56659,-2.782619 -0.6859,-5.257478 -1.35685,-2.680882 -2.40915,-3.436979 -5.20098,-3.736888 -1.92507,-0.206791 -4.21044,-1.015206 -5.07878,-1.796478 -0.86833,-0.781272 -2.3449,-1.420495 -3.2813,-1.420495 -1.31941,0 -1.65027,0.776551 -1.47031,3.449195 0.13319,1.977882 -0.42846,4.217359 -1.31664,5.25 -0.85195,0.990443 -1.82829,2.588305 -2.16964,3.550805 -0.36963,1.04234 -1.64423,1.75 -3.15199,1.75 -1.39228,0 -2.53138,0.45 -2.53138,1 0,0.55 0.41423,1 0.92056,1 0.50628,0 1.21099,1.322599 1.56607,2.939109 0.63351,2.884337 3.20228,4.269077 6.34523,3.42048 0.7324,-0.197774 1.9699,-0.359589 2.74991,-0.359589 z m 28.41826,-0.418213 c 0,-0.230016 0.27313,-1.130016 0.60689,-2 0.43524,-1.133949 0.01,-1.581787 -1.49986,-1.581787 -1.44036,0 -2.10699,0.632815 -2.10699,2 0,1.111111 0.66663,2 1.5,2 0.82493,0 1.49996,-0.188196 1.49996,-0.418213 z m -61.88544,-2.106787 c -0.0196,-0.53625 -1.04419,-1.130719 -2.27716,-1.321042 -1.96935,-0.303991 -2.07744,-0.148047 -0.88953,1.283305 1.4102,1.699175 3.22778,1.720834 3.16669,0.03774 z m 19.29556,-2.574277 c -2.06798,-2.285083 -3.41016,-2.442801 -3.41016,-0.400723 0,0.825 0.675,1.5 1.5,1.5 0.825,0 1.5,0.476558 1.5,1.059017 0,0.582459 0.4793,0.762785 1.06515,0.400723 0.69724,-0.430924 0.47101,-1.314793 -0.65499,-2.559017 z m 78.58989,0.658294 c 0,-0.242541 -0.45,-0.719098 -0.99995,-1.059017 -0.55002,-0.339919 -1,-0.141476 -1,0.440983 0,0.582459 0.44998,1.059017 1,1.059017 0.54995,0 0.99995,-0.198442 0.99995,-0.440983 z m -46.16786,-4.661847 c 0.98056,-1.570057 2.05494,-1.993978 4.24055,-1.673193 1.9814,0.290812 2.92734,9.18e-4 2.92734,-0.89717 0,-0.729744 -0.63842,-1.326807 -1.41842,-1.326807 -0.78016,0 -2.32965,-1.4625 -3.44324,-3.25 -2.25287,-3.616071 -5.71054,-6.132501 -7.17908,-5.22486 -1.38807,0.857833 -1.17795,2.47486 0.32141,2.47486 0.70446,0 1.81298,1.409937 2.46348,3.133194 0.96194,2.54847 0.90954,3.523107 -0.28083,5.222506 -0.80481,1.149122 -1.46333,2.439185 -1.46333,2.866806 0,1.591588 2.56435,0.704712 3.83212,-1.325336 z m -30.47055,-2.39717 c -0.31659,-0.825 -0.96336,-1.5 -1.43725,-1.5 -0.47389,0 -0.6026,0.675 -0.28602,1.5 0.3166,0.825 0.96334,1.5 1.43724,1.5 0.47388,0 0.60259,-0.675 0.28603,-1.5 z m 44.42223,0.654738 c 0.7062,-0.448051 1.02216,-1.496802 0.70223,-2.330558 -0.4193,-1.092301 0.62867,-1.978163 3.74952,-3.17005 2.3822,-0.909772 5.07717,-1.65413 5.9889,-1.65413 2.4677,0 3.17512,-1.884945 1.72436,-4.595353 -1.71861,-3.211264 -3.09246,-3.048629 -2.73666,0.323948 0.26029,2.467217 -0.0232,2.730645 -2.96219,2.75 -1.78747,0.01177 -3.24995,-0.316095 -3.24995,-0.728595 0,-0.4125 -0.90005,-0.75 -2.00012,-0.75 -1.36303,0 -1.99992,0.666667 -1.99992,2.09362 0,1.252615 -0.80335,2.303712 -2.00003,2.616631 -1.24112,0.324584 -1.99997,1.364016 -1.99997,2.739714 0,3.426317 1.92838,4.51662 4.78383,2.704773 z m -39.78388,-2.654738 c 0,-0.862179 -0.90248,-1.5 -2.12244,-1.5 -1.77324,0 -1.91761,0.246798 -0.87753,1.5 0.68467,0.825 1.63974,1.5 2.12245,1.5 0.48266,0 0.87752,-0.675 0.87752,-1.5 z m -17.0318,-0.4841 c -0.0175,-0.283745 -0.6296,-1.3034 -1.36025,-2.2659 -1.52212,-2.005146 -4.73265,-2.373499 -4.35795,-0.5 0.16445,0.822253 -1.03346,1.25 -3.50066,1.25 -3.57149,0 -4.44133,0.474681 -3.18044,1.735581 0.7028,0.702781 12.44335,0.494771 12.3993,-0.219681 z m 8.53181,-1.093255 3.00002,-2.064177 -3.50003,0.688363 c -4.1328,0.812821 -4.99999,1.24853 -4.99999,2.512186 0,1.540115 2.30106,1.064685 5.5,-1.136372 z m 41.50008,-2.39126 c 0,-0.892084 -0.58667,-1.243517 -1.4943,-0.895215 -0.8218,0.31537 -1.24533,0.976246 -0.94095,1.468615 0.87261,1.411923 2.43525,1.043989 2.43525,-0.5734 z m -31.0001,-2.56277 c 0,-2.661269 -2.74232,-3.65483 -4.69587,-1.701321 -1.96237,1.962381 -0.89291,3.732706 2.2549,3.732706 1.78689,0 2.44097,-0.544338 2.44097,-2.031385 z m -10.56758,0.140769 c 0.65499,-1.059795 -3.92728,-4.281177 -4.81997,-3.388488 -0.68432,0.68433 2.2421,4.279104 3.48354,4.279104 0.4323,0 1.03368,-0.400777 1.33643,-0.890616 z m 44.56764,-1.002395 c 0,-0.92061 -2.36727,-2.106989 -4.20424,-2.106989 -0.63007,0 -0.54959,0.591767 0.20429,1.5 1.35852,1.63697 3.99995,2.0378 3.99995,0.606989 z m -7.31486,-2.485134 c -0.29089,-0.75798 -0.0308,-1.87548 0.57633,-2.483333 1.61319,-1.613151 0.0597,-2.649494 -1.73728,-1.158578 -2.42673,2.014017 -1.82566,4.242631 1.33267,4.941109 0.19646,0.04342 0.11917,-0.541218 -0.17172,-1.299198 z m 16.70781,-0.203642 c 0.85774,-2.235067 0.79007,-2.418213 -0.89295,-2.418213 -0.83333,0 -1.49996,0.888889 -1.49996,2 0,2.384246 1.53553,2.652613 2.39291,0.418213 z m -47.29222,-0.61346 c 3.32154,-1.167921 3.34209,-1.209194 0.89923,-1.805333 -1.92396,-0.469516 -2.42248,-1.147845 -2.16355,-2.943991 0.27934,-1.93777 -0.0179,-2.241192 -1.75238,-1.78767 -1.33543,0.349225 -2.42614,-0.05139 -3.02415,-1.110762 -1.07823,-1.910078 -2.46308,-0.888453 -3.51492,2.593003 -0.40866,1.35261 -0.25406,2.25 0.3876,2.25 0.58708,0 1.0674,-0.45 1.0674,-1 0,-0.55 0.675,-1 1.5,-1 1.36916,0 1.89282,1.406416 1.76866,4.75 -0.0575,1.550282 0.55904,1.557269 4.83211,0.05475 z m 9.04005,0.195247 c 0.5375,0 0.69913,-0.45 0.35918,-1 -0.74444,-1.204629 -5.50002,-1.348735 -5.50002,-0.166667 0,1.434025 1.33769,2.251073 2.77959,1.697766 0.76118,-0.292104 1.82376,-0.531099 2.36125,-0.531099 z m 32.51285,-0.134033 c -1.3232,-0.769152 -2.15914,-0.760537 -2.94995,0.03041 -0.80488,0.804833 -0.30502,1.095392 1.84635,1.073216 2.58609,-0.02666 2.72226,-0.162791 1.1036,-1.103624 z m -2.67585,-6.084582 c 0.0117,-0.395239 -0.65276,-0.459594 -1.47778,-0.143011 -0.82499,0.316582 -1.49996,0.940654 -1.49996,1.386827 0,0.446173 -0.26687,1.635528 -0.59309,2.643012 -0.4236,1.308218 -8.1e-4,1.117227 1.47773,-0.668213 1.13895,-1.375 2.08088,-2.823377 2.0931,-3.218615 z m 7.20556,-0.998052 c -0.71757,-0.717562 -1.1833,-0.776604 -1.1833,-0.15 0,1.334781 1.18257,2.517391 1.84997,1.85 0.28415,-0.284166 -0.0155,-1.049166 -0.66667,-1.7 z M 145.47424,118.30508 c 0,-1.1 0.45,-2 1,-2 0.54999,0 1.00001,0.9 1.00001,2 0,1.1 -0.45002,2 -1.00001,2 -0.55,0 -1,-0.9 -1,-2 z"
           style="fill:#008000;stroke-width:1.00003" />
      </g>
    </g>
  </g>
</svg>
